<svg width="30" height="30" viewBox="0 0 30 30" fill="none" xmlns="http://www.w3.org/2000/svg">
<g clip-path="url(#clip0_410_1928)">
<path d="M15 29.9854C23.2059 29.9854 30 23.1799 30 14.9927C30 6.7908 23.1912 0 14.9853 0C6.79411 0 0 6.7908 0 14.9927C0 23.1799 6.80881 29.9854 15 29.9854ZM15 27.4866C8.05881 27.4866 2.5147 21.9305 2.5147 14.9927C2.5147 8.05489 8.04411 2.49879 14.9853 2.49879C21.9264 2.49879 27.4999 8.05489 27.4999 14.9927C27.4999 21.9305 21.9411 27.4866 15 27.4866ZM25.0588 24.6792L25.0146 24.5175C24.2941 22.3567 20.4118 19.9902 15 19.9902C9.60293 19.9902 5.72058 22.3567 4.98529 24.5028L4.94117 24.6792C7.58822 27.2955 12.1323 28.8242 15 28.8242C17.8823 28.8242 22.3824 27.3102 25.0588 24.6792ZM15 17.4915C17.8382 17.5208 20.044 15.1103 20.044 11.95C20.044 8.98091 17.8235 6.52623 15 6.52623C12.1765 6.52623 9.94116 8.98091 9.95587 11.95C9.97057 15.1103 12.1765 17.4621 15 17.4915Z" fill="#2A2A3B" fill-opacity="0.85"/>
</g>
<defs>
<clipPath id="clip0_410_1928">
<rect width="30" height="30" fill="white"/>
</clipPath>
</defs>
</svg>
