<svg width="27" height="23" viewBox="0 0 27 23" fill="none" xmlns="http://www.w3.org/2000/svg">
<g clip-path="url(#clip0_422_2096)">
<path d="M0 11.4937C0 11.9074 0.162801 12.3837 0.638682 12.8349L10.5195 22.1728C11.1206 22.7368 11.6215 22.9875 12.2352 22.9875C13.0868 22.9875 13.7004 22.3608 13.7004 21.521V16.4447H24.1197C25.9355 16.4447 27 15.4169 27 13.6245V9.37549C27 7.58311 25.9355 6.55532 24.1197 6.55532H13.7004V1.52916C13.7004 0.689374 13.0868 0 12.2101 0C11.5965 0 11.1832 0.263215 10.5195 0.889919L0.638682 10.1401C0.150279 10.6038 0 11.0676 0 11.4937Z" fill="#432759"/>
</g>
<defs>
<clipPath id="clip0_422_2096">
<rect width="27" height="23" fill="white"/>
</clipPath>
</defs>
</svg>
