<svg width="72" height="60" viewBox="0 0 72 60" fill="none" xmlns="http://www.w3.org/2000/svg">
<rect width="72" height="60" rx="10" fill="#A61F82"/>
<path d="M20.9634 44.3191L26.5214 43.2419C29.4559 42.6763 30.7271 41.1145 30.7271 38.0177V21.6048C30.7271 18.8311 28.8068 17 25.9128 17C23.4652 17 21.3285 18.7369 20.6794 21.3355L16.2033 39.2699C15.3243 42.7706 17.3663 45.0057 20.9634 44.3191ZM48.0366 44.3191C51.6338 45.0057 53.6757 42.7706 52.7967 39.2699L48.3206 21.3355C47.658 18.7369 45.5349 17 43.0872 17C40.1931 17 38.2593 18.8311 38.2593 21.6048V38.0177C38.2593 41.1145 39.5441 42.6763 42.4651 43.2419L48.0366 44.3191ZM22.4104 37.9369C21.8424 38.0581 21.2339 37.6676 21.1122 37.1022C21.004 36.5233 21.3961 35.9442 21.9506 35.8365L26.2104 34.9209L22.7214 31.8107C22.2887 31.4338 22.2346 30.7201 22.6403 30.2758C23.0189 29.8449 23.7492 29.8315 24.1684 30.2085L28.8203 34.3824L30.7271 33.9785V36.1866L22.4104 37.9369ZM38.2593 36.1866V33.9785L40.1661 34.3824L44.8045 30.2085C45.2237 29.8315 45.954 29.8449 46.3462 30.2758C46.7519 30.7201 46.6978 31.4338 46.265 31.8107L42.7626 34.9209L47.0224 35.8365C47.5903 35.9442 47.9824 36.5233 47.8607 37.1022C47.7526 37.6676 47.1441 38.0581 46.5761 37.9369L38.2593 36.1866ZM38.2593 33.9785V36.1866L34.5 35.3788L30.7271 36.1866V33.9785L33.4046 33.3995V18.4811C33.4046 17.8886 33.905 17.3905 34.5 17.3905C35.095 17.3905 35.5819 17.8886 35.5819 18.4811V33.3995L38.2593 33.9785Z" fill="white"/>
</svg>
