<svg width="22" height="30" viewBox="0 0 22 30" fill="none" xmlns="http://www.w3.org/2000/svg">
<g clip-path="url(#clip0_422_1604)">
<path d="M10.9929 29.9853C11.7701 29.9853 12.1516 29.4436 12.957 28.3309L21.3925 16.6618C21.7739 16.1201 22 15.5783 22 14.9927C22 14.3924 21.7739 13.8653 21.3925 13.3236L12.957 1.63982C12.1516 0.541727 11.7701 0 10.9929 0C10.2158 0 9.83429 0.541727 9.04302 1.63982L0.607578 13.3236C0.211945 13.8653 0 14.3924 0 14.9927C0 15.5783 0.211945 16.1201 0.607578 16.6618L9.04302 28.3309C9.83429 29.4436 10.2158 29.9853 10.9929 29.9853Z" fill="#783DA6"/>
<path d="M10.8486 21.1499C10.6289 21.1499 10.4824 21.0107 10.4824 20.769V19.8755C8.6001 19.7876 7.38428 18.916 7.02539 17.8467C6.9668 17.6782 6.9375 17.5244 6.9375 17.3853C6.9375 16.8579 7.29639 16.499 7.89697 16.499C8.35107 16.499 8.65869 16.7334 8.86377 17.1582C9.09814 17.7295 9.55957 18.147 10.4824 18.2275V15.5615L9.94043 15.437C8.02148 15.0049 6.97412 14.1479 6.97412 12.5659C6.97412 10.8008 8.43896 9.6582 10.4824 9.55566V8.64014C10.4824 8.39844 10.6289 8.25928 10.8486 8.25928C11.0684 8.25928 11.2148 8.39844 11.2148 8.64014V9.55566C12.958 9.67285 14.1665 10.5298 14.5181 11.6577C14.562 11.8042 14.5913 11.9507 14.5913 12.1045C14.5913 12.5879 14.2251 12.9028 13.6685 12.9028C13.2144 12.9028 12.8994 12.6904 12.665 12.2656C12.3794 11.665 11.918 11.3062 11.2148 11.2109V13.7891L11.7861 13.9136C13.793 14.3677 14.8403 15.1733 14.8403 16.7773C14.8403 18.6304 13.3242 19.751 11.2148 19.8755V20.769C11.2148 21.0107 11.0684 21.1499 10.8486 21.1499ZM9.0249 12.3755C9.0249 12.9688 9.45703 13.3569 10.4824 13.6206V11.2036C9.52295 11.2915 9.0249 11.7822 9.0249 12.3755ZM12.7969 17.0044C12.7969 16.3525 12.3867 16.0229 11.2148 15.73V18.2275C12.2695 18.147 12.7969 17.6782 12.7969 17.0044Z" fill="white"/>
</g>
<defs>
<clipPath id="clip0_422_1604">
<rect width="22" height="30" fill="white"/>
</clipPath>
</defs>
</svg>
