<svg width="22" height="30" viewBox="0 0 22 30" fill="none" xmlns="http://www.w3.org/2000/svg">
<g clip-path="url(#clip0_422_1724)">
<path d="M10.0554 27.6716C16.8102 27.6716 21.3134 23.1044 21.3134 16.2217C21.3134 4.77186 11.565 0 4.79744 0C3.59488 0 2.82729 0.422175 2.82729 1.24094C2.82729 1.56077 2.96801 1.89339 3.23667 2.20043C4.75906 4.01706 6.28144 6.17911 6.30703 8.69935C6.30703 9.27505 6.24306 9.78677 5.83368 10.5032L6.47335 10.3753C5.89765 8.49467 4.34968 7.16418 2.99361 7.16418C2.46909 7.16418 2.11088 7.54797 2.11088 8.12366C2.11088 8.45629 2.20043 9.23667 2.20043 9.79957C2.20043 12.6652 0 14.3412 0 18.9595C0 24.1919 4.00426 27.6716 10.0554 27.6716ZM10.1834 25.8806C5.16844 25.8806 1.80383 23.0917 1.80383 18.9595C1.80383 14.7633 4.06823 13.3432 4.06823 10.017C4.06823 9.51811 3.96588 9.07036 3.85074 8.68656L3.5565 9.19828C4.60554 9.82516 5.32196 10.9637 5.73134 12.7164C5.78251 12.9851 5.93603 13.113 6.12792 13.113C7.16418 13.113 7.90619 10.5416 7.90619 8.91684C7.90619 5.97442 6.63966 3.1855 4.57995 1.27932L4.23454 1.6887C13.4328 1.8806 19.4328 7.98294 19.4328 16.1578C19.4328 21.9659 15.7229 25.8806 10.1834 25.8806ZM10.3497 24.0767C13.3944 24.0767 14.8784 21.8379 14.8784 19.3049C14.8784 16.8102 13.42 14.0213 10.6183 12.7036C10.5032 12.6652 10.4264 12.7292 10.4392 12.8443C10.6567 14.9424 10.3369 16.887 9.65885 17.8082C9.33902 17.066 8.95522 16.4265 8.36674 15.9019C8.27718 15.8252 8.20043 15.8636 8.17483 15.9787C7.97014 17.4243 6.371 18.2302 6.371 20.4819C6.371 22.6311 7.95736 24.0767 10.3497 24.0767Z" fill="#432759" fill-opacity="0.85"/>
</g>
<defs>
<clipPath id="clip0_422_1724">
<rect width="21.3134" height="30" fill="white"/>
</clipPath>
</defs>
</svg>
