<svg width="25" height="25" viewBox="0 0 25 25" fill="none" xmlns="http://www.w3.org/2000/svg">
<g clip-path="url(#clip0_410_1950)">
<path fill-rule="evenodd" clip-rule="evenodd" d="M5.62423 23.1356C4.14748 23.1356 3.26771 22.2323 3.26771 20.7012V11.9768L11.8768 4.38698C12.2643 4.0455 12.7357 4.03448 13.1337 4.38698L21.7428 11.9768V20.7012C21.7428 22.2323 20.8735 23.1356 19.3967 23.1356H5.62423ZM0.900714 11.7565C0.335149 11.7565 0 11.3268 0 10.8752C0 10.6218 0.104734 10.3575 0.335149 10.1592L11.2485 0.520489C12.034 -0.173496 12.9975 -0.173496 13.7725 0.520489L19.114 5.24265V3.15323C19.114 2.66853 19.4178 2.36011 19.8681 2.36011H20.9887C21.4496 2.36011 21.7428 2.66853 21.7428 3.15323V7.56661L24.6754 10.1592C24.8953 10.3575 25 10.5778 25 10.9082C25 11.437 24.6021 11.7565 24.1098 11.7565C23.8165 11.7565 23.5756 11.5912 23.3662 11.404L12.8823 2.1508C12.6519 1.9305 12.3691 1.9305 12.1387 2.1508L1.6548 11.404C1.43486 11.5912 1.19397 11.7565 0.900714 11.7565ZM12.8095 13.3868L15.1973 12.7699C15.6791 12.6488 15.8362 12.5386 15.8362 11.9107V9.81773C15.8362 9.41016 15.7001 9.22288 15.1555 9.36608L12.1915 10.1372C11.6887 10.2694 11.5735 10.3795 11.5735 11.0074V15.8433C11.5735 16.3169 11.5317 16.4161 11.0184 16.5593L10.0863 16.8127C9.15421 17.066 8.38965 17.6499 8.38965 18.6853C8.38965 19.5996 9.03899 20.2605 10.0654 20.2605C11.5107 20.2605 12.4952 19.159 12.4952 17.6168V13.9266C12.4952 13.53 12.579 13.4419 12.8095 13.3868Z" fill="#8B73A4"/>
</g>
<defs>
<clipPath id="clip0_410_1950">
<rect width="25" height="25" fill="white"/>
</clipPath>
</defs>
</svg>
