<svg width="67" height="60" viewBox="0 0 67 60" fill="none" xmlns="http://www.w3.org/2000/svg">
<rect x="0.0585938" width="66.1578" height="60" rx="10" fill="#3D4073"/>
<g clip-path="url(#clip0_524_4)">
<path d="M51.5989 22.0451V16.0072C51.5989 15.1561 50.8376 14.6101 49.9344 14.7707L40.8334 16.5692C39.7002 16.794 39.0804 17.3561 39.0804 18.2553L39.1158 36.1123C39.2045 36.8991 38.7972 37.413 38.0181 37.5575L35.2027 38.0873C31.6615 38.7619 29.9971 40.3998 29.9971 42.8246C29.9971 45.2815 32.0864 46.9999 35.0257 46.9999C37.6285 46.9999 41.524 45.2655 41.524 40.5926V25.8991C41.524 25.048 41.701 24.8714 42.5332 24.7108L50.6251 23.105C51.227 22.9925 51.5989 22.575 51.5989 22.0451Z" fill="white"/>
<path d="M16.6992 22.8002H32.5287C33.1838 22.8002 33.7328 22.3024 33.7328 21.7082C33.7328 21.1141 33.1838 20.6323 32.5287 20.6323H16.6992C16.0263 20.6323 15.4951 21.1141 15.4951 21.7082C15.4951 22.3024 16.0263 22.8002 16.6992 22.8002ZM16.6992 28.517H32.5287C33.2015 28.517 33.7328 28.0192 33.7328 27.409C33.7328 26.8148 33.1838 26.3491 32.5287 26.3491H16.6992C16.0263 26.3491 15.4951 26.8148 15.4951 27.409C15.4951 28.0192 16.0086 28.517 16.6992 28.517ZM16.6992 34.2338H32.5287C33.2015 34.2338 33.7328 33.752 33.7328 33.1418C33.7328 32.5476 33.1838 32.0658 32.5287 32.0658H16.6992C16.0263 32.0658 15.4951 32.5476 15.4951 33.1418C15.4951 33.752 16.0086 34.2338 16.6992 34.2338Z" fill="white"/>
</g>
<defs>
<clipPath id="clip0_524_4">
<rect width="36.1034" height="33" fill="white" transform="translate(15.4951 14)"/>
</clipPath>
</defs>
</svg>
