<svg width="817" height="784" viewBox="0 0 817 784" fill="none" xmlns="http://www.w3.org/2000/svg">
<path d="M393.047 8H92.958C46.0369 8 8 46.037 8 92.958V92.958C8 139.879 46.037 177.916 92.958 177.916H709C764.228 177.916 809 222.757 809 277.985V277.985C809 333.214 764.228 378.054 709 378.054H104.375C51.1487 378.054 8 421.203 8 474.429V474.429C8 527.656 51.1487 570.805 104.375 570.805H709C764.228 570.805 809 615.576 809 670.805V676C809 731.228 764.228 776 709 776H24.5024" stroke="#EBE4FE" stroke-width="15"/>
</svg>
