<svg width="498" height="784" viewBox="0 0 498 784" fill="none" xmlns="http://www.w3.org/2000/svg">
<path d="M239.628 8.39941H92.956C46.0361 8.39941 8 46.4355 8 93.3555V93.3555C8 140.275 46.0361 178.312 92.9561 178.312H389.848C445.076 178.312 489.848 223.15 489.848 278.378V278.378C489.848 333.607 445.076 378.445 389.848 378.445H104.373C51.1477 378.445 8 421.593 8 474.818V474.818C8 528.044 51.1477 571.191 104.373 571.191H389.848C445.076 571.191 489.848 615.963 489.848 671.191V676.382C489.848 731.611 445.076 776.382 389.848 776.382H17.9271" stroke="#EBE4FE" stroke-width="15"/>
</svg>
