<svg width="1730" height="1118" viewBox="0 0 1730 1118" fill="none" xmlns="http://www.w3.org/2000/svg">
<line y1="-0.5" x2="1117" y2="-0.5" transform="matrix(0.000856948 1 -0.999955 0.00947106 0 1)" stroke="#8080FF" stroke-opacity="0.2"/>
<line y1="-0.5" x2="1117" y2="-0.5" transform="matrix(0.000856948 1 -0.999955 0.00947106 123.432 1)" stroke="#8080FF" stroke-opacity="0.2"/>
<line y1="-0.5" x2="1117" y2="-0.5" transform="matrix(0.000856948 1 -0.999955 0.00947106 246.863 1)" stroke="#8080FF" stroke-opacity="0.2"/>
<line y1="-0.5" x2="1117" y2="-0.5" transform="matrix(0.000856948 1 -0.999955 0.00947106 370.295 1)" stroke="#8080FF" stroke-opacity="0.2"/>
<line y1="-0.5" x2="1117" y2="-0.5" transform="matrix(0.000856948 1 -0.999955 0.00947106 493.727 1)" stroke="#8080FF" stroke-opacity="0.2"/>
<line y1="-0.5" x2="1117" y2="-0.5" transform="matrix(0.000856948 1 -0.999955 0.00947106 617.158 1)" stroke="#8080FF" stroke-opacity="0.2"/>
<line y1="-0.5" x2="1117" y2="-0.5" transform="matrix(0.000856948 1 -0.999955 0.00947106 740.59 1)" stroke="#8080FF" stroke-opacity="0.2"/>
<line y1="-0.5" x2="1117" y2="-0.5" transform="matrix(0.000856948 1 -0.999955 0.00947106 864.021 1)" stroke="#8080FF" stroke-opacity="0.2"/>
<line y1="-0.5" x2="1117" y2="-0.5" transform="matrix(0.000856948 1 -0.999955 0.00947106 987.453 1)" stroke="#8080FF" stroke-opacity="0.2"/>
<line y1="-0.5" x2="1117" y2="-0.5" transform="matrix(0.000856948 1 -0.999955 0.00947106 1110.88 1)" stroke="#8080FF" stroke-opacity="0.2"/>
<line y1="-0.5" x2="1117" y2="-0.5" transform="matrix(0.000856948 1 -0.999955 0.00947106 1234.32 1)" stroke="#8080FF" stroke-opacity="0.2"/>
<line y1="-0.5" x2="1117" y2="-0.5" transform="matrix(0.000856948 1 -0.999955 0.00947106 1357.75 1)" stroke="#8080FF" stroke-opacity="0.2"/>
<line y1="-0.5" x2="1117" y2="-0.5" transform="matrix(0.000856948 1 -0.999955 0.00947106 1481.18 1)" stroke="#8080FF" stroke-opacity="0.2"/>
<line y1="-0.5" x2="1117" y2="-0.5" transform="matrix(0.000856948 1 -0.999955 0.00947106 1604.61 1)" stroke="#8080FF" stroke-opacity="0.2"/>
<line y1="-0.5" x2="1117" y2="-0.5" transform="matrix(0.000856948 1 -0.999955 0.00947106 1728.04 1)" stroke="#8080FF" stroke-opacity="0.2"/>
</svg>
