<svg width="532" height="301" viewBox="0 0 532 301" fill="none" xmlns="http://www.w3.org/2000/svg">
<g clip-path="url(#clip0_433_62)">
<path d="M407.1 297.17C400.299 291.742 396.169 283.166 397.252 274.818C398.335 266.47 405.045 258.795 413.749 257.023C422.452 255.25 432.374 260.157 435.018 268.189C436.472 252.704 438.149 236.571 446.864 223.385C454.755 211.445 468.423 202.902 483.235 201.374C498.048 199.845 513.644 205.618 522.882 216.662C532.12 227.706 534.382 243.762 527.912 256.441C523.146 265.782 514.364 272.733 505.164 278.388C475.433 296.509 439.776 303.877 404.752 299.139L407.1 297.17Z" fill="#F2F2F2"/>
<path d="M508.234 205.938C496.011 215.342 484.799 225.859 474.758 237.338C459.044 255.242 446.328 275.315 437.053 296.858C436.374 298.429 439.076 299.113 439.747 297.559C454.923 262.547 479.148 231.688 510.209 207.804C511.604 206.731 509.617 204.874 508.234 205.938Z" fill="white"/>
<path d="M171.401 295.695C180.742 288.239 186.416 276.461 184.928 264.995C183.44 253.529 174.224 242.988 162.269 240.553C150.315 238.118 136.688 244.858 133.057 255.889C131.058 234.622 128.756 212.463 116.786 194.352C105.947 177.953 87.1745 166.218 66.8293 164.119C46.4841 162.02 25.0632 169.948 12.3746 185.117C-0.313924 200.286 -3.42066 222.339 5.46607 239.754C12.0126 252.583 24.0737 262.131 36.7106 269.899C77.027 294.68 127.039 305.015 174.627 298.399" fill="#F2F2F2"/>
<path d="M32.4937 170.388C49.281 183.304 64.6816 197.75 78.4727 213.516C92.266 229.267 104.41 246.244 114.733 264.209C120.503 274.287 125.686 284.655 130.26 295.266C131.192 297.425 127.482 298.364 126.56 296.23C118.459 277.522 108.436 259.609 96.6357 242.748C84.8928 225.948 71.4523 210.263 56.5031 195.915C48.0478 187.803 39.1267 180.137 29.7803 172.951C27.8645 171.477 30.5938 168.926 32.4937 170.388Z" fill="white"/>
<path d="M381.704 299.906H158.843V83.9057C158.843 37.95 198.422 0.5625 247.071 0.5625H293.476C342.125 0.5625 381.704 37.95 381.704 83.9057V299.906Z" fill="#F2F2F2"/>
<path d="M335.301 299.906H158.843V83.9059C158.794 66.2967 164.697 49.1326 175.692 34.9126C176.098 34.3907 176.502 33.8756 176.919 33.3662C182.237 26.7772 188.566 20.9744 195.697 16.1493C196.1 15.8724 196.504 15.6004 196.914 15.3283C202.881 11.4279 209.336 8.23934 216.131 5.83529C216.534 5.69081 216.945 5.54605 217.356 5.40721C223.501 3.33549 229.872 1.91638 236.35 1.17607C236.752 1.12425 237.164 1.08369 237.576 1.04314C243.889 0.405541 250.256 0.405541 256.569 1.04314C256.98 1.08369 257.392 1.12424 257.798 1.17662C264.275 1.91698 270.644 3.33592 276.788 5.40723C277.199 5.54608 277.61 5.69083 278.014 5.83558C284.726 8.20931 291.104 11.3503 297.007 15.1884C297.417 15.4545 297.828 15.7266 298.232 15.9986C302.229 18.6937 305.984 21.6962 309.457 24.9754C312.242 27.6058 314.838 30.4095 317.226 33.3679C317.642 33.8757 318.046 34.3908 318.451 34.9118C329.446 49.1319 335.349 66.2964 335.301 83.9059V299.906Z" fill="#CCCCCC"/>
<path d="M320.952 203.297C326.347 203.297 330.721 199.165 330.721 194.069C330.721 188.972 326.347 184.84 320.952 184.84C315.556 184.84 311.183 188.972 311.183 194.069C311.183 199.165 315.556 203.297 320.952 203.297Z" fill="#783DA6"/>
<path d="M363.448 293.436H355.962L352.4 266.162L363.449 266.163L363.448 293.436Z" fill="#FFB8B8"/>
<path d="M350.615 291.416H365.051V300.002H341.525C341.525 298.874 341.761 297.758 342.217 296.716C342.674 295.674 343.344 294.728 344.188 293.93C345.032 293.133 346.034 292.501 347.137 292.069C348.239 291.638 349.421 291.416 350.615 291.416Z" fill="#2F2E41"/>
<path d="M400.693 293.436H393.208L389.646 266.162L400.694 266.163L400.693 293.436Z" fill="#FFB8B8"/>
<path d="M387.86 291.416H402.297V300.002H378.771C378.771 298.874 379.006 297.758 379.462 296.716C379.919 295.674 380.589 294.728 381.433 293.93C382.277 293.133 383.279 292.501 384.382 292.069C385.485 291.638 386.666 291.416 387.86 291.416Z" fill="#2F2E41"/>
<path d="M325.896 195.897C325.358 195.147 325 194.295 324.847 193.401C324.695 192.507 324.752 191.592 325.015 190.72C325.277 189.849 325.739 189.043 326.367 188.359C326.995 187.674 327.775 187.128 328.65 186.759L354.097 120.507L366.618 126.962L337.564 190.275C338.123 191.705 338.107 193.28 337.519 194.7C336.931 196.121 335.812 197.288 334.373 197.981C332.935 198.674 331.278 198.845 329.716 198.46C328.153 198.076 326.794 197.164 325.896 195.897Z" fill="#FFB8B8"/>
<path d="M396.869 208.346C396.037 207.895 395.32 207.278 394.768 206.537C394.216 205.796 393.843 204.95 393.674 204.059C393.506 203.167 393.547 202.251 393.793 201.376C394.04 200.501 394.487 199.687 395.103 198.993L387.22 128.91L401.469 129.525L404.745 198.46C405.912 199.515 406.629 200.937 406.759 202.457C406.89 203.977 406.426 205.489 405.456 206.708C404.485 207.926 403.074 208.766 401.492 209.068C399.909 209.37 398.265 209.113 396.869 208.346Z" fill="#FFB8B8"/>
<path d="M374.137 108.236C382.419 108.236 389.134 101.894 389.134 94.0699C389.134 86.2462 382.419 79.9038 374.137 79.9038C365.855 79.9038 359.141 86.2462 359.141 94.0699C359.141 101.894 365.855 108.236 374.137 108.236Z" fill="#FFB8B8"/>
<path d="M396.774 192.407H351.562L351.616 192.075C351.698 191.578 359.674 142.219 353.791 126.071C353.201 124.484 353.253 122.747 353.937 121.195C354.621 119.642 355.889 118.383 357.497 117.66C365.906 113.919 382.047 109.313 395.671 120.491C397.675 122.163 399.241 124.253 400.243 126.595C401.246 128.937 401.658 131.467 401.446 133.986L396.774 192.407Z" fill="#783DA6"/>
<path d="M360.245 149.514L339.891 145.613L349.432 124.255C350.003 122.186 351.419 120.416 353.37 119.333C355.321 118.249 357.647 117.941 359.838 118.475C362.029 119.009 363.907 120.343 365.058 122.183C366.21 124.023 366.542 126.22 365.982 128.291L360.245 149.514Z" fill="#783DA6"/>
<path d="M386.315 156.756L385.091 130.259C384.163 125.277 387.182 120.569 391.824 119.799C396.468 119.032 401.002 122.487 401.934 127.505L406.534 152.264L386.315 156.756Z" fill="#783DA6"/>
<path d="M395.269 189.234C402.544 215.406 403.338 248.682 401.375 284.978L391.606 283.825L373.899 214.612L364.13 284.978L353.139 284.401C349.856 246.317 346.659 213.623 351.918 192.118L395.269 189.234Z" fill="#2F2E41"/>
<path d="M384.018 105.018C381.221 107.833 376.025 106.321 375.66 102.476C375.632 102.177 375.634 101.877 375.667 101.578C375.855 99.8749 376.897 98.3283 376.647 96.5296C376.591 96.0819 376.414 95.6553 376.134 95.2902C373.905 92.4702 368.672 96.5515 366.568 93.9986C365.277 92.4333 366.794 89.9687 365.804 88.2191C364.497 85.9099 360.627 87.0491 358.2 85.7845C355.499 84.3774 355.661 80.4636 357.439 78.083C359.606 75.1798 363.407 73.6307 367.161 73.4074C370.915 73.1841 374.642 74.1426 378.147 75.4327C382.128 76.8985 386.077 78.9242 388.527 82.2314C391.507 86.2533 391.794 91.6604 390.303 96.3632C389.397 99.224 386.303 102.719 384.018 105.018Z" fill="#2F2E41"/>
<path d="M513.273 300.277H62.4856C62.2932 300.276 62.1088 300.204 61.9729 300.075C61.8371 299.946 61.7607 299.772 61.7607 299.59C61.7607 299.408 61.8371 299.234 61.9729 299.105C62.1088 298.976 62.2932 298.904 62.4856 298.903H513.273C513.466 298.904 513.65 298.976 513.786 299.105C513.922 299.234 513.998 299.408 513.998 299.59C513.998 299.772 513.922 299.946 513.786 300.075C513.65 300.204 513.466 300.276 513.273 300.277Z" fill="#3F3D56"/>
<path d="M286.76 237.326H207.384C206.339 237.331 205.334 236.945 204.59 236.251C203.846 235.558 203.424 234.613 203.416 233.626V66.2652C203.424 65.2777 203.846 64.3336 204.59 63.6399C205.334 62.9462 206.339 62.5597 207.384 62.565H286.76C287.805 62.5597 288.81 62.9462 289.554 63.6399C290.298 64.3336 290.72 65.2777 290.728 66.2652V233.626C290.72 234.613 290.298 235.558 289.554 236.251C288.81 236.945 287.805 237.331 286.76 237.326Z" fill="white"/>
<path d="M290.728 116.718H203.415V117.871H290.728V116.718Z" fill="#CCCCCC"/>
<path d="M291.034 182.533H203.721V183.687H291.034V182.533Z" fill="#CCCCCC"/>
<path d="M232.113 62.5654H230.892V237.903H232.113V62.5654Z" fill="#CCCCCC"/>
<path d="M262.642 62.5654H261.42V237.903H262.642V62.5654Z" fill="#CCCCCC"/>
</g>
<defs>
<clipPath id="clip0_433_62">
<rect width="531.205" height="300" fill="white" transform="translate(0.397461 0.5625)"/>
</clipPath>
</defs>
</svg>
