<svg width="23" height="21" viewBox="0 0 23 21" fill="none" xmlns="http://www.w3.org/2000/svg">
<g clip-path="url(#clip0_410_1961)">
<path d="M2.98781 20.9375H13.2234C15.2185 20.9375 16.2113 19.9219 16.2113 17.8809V13.3496H14.6595V17.8516C14.6595 18.8281 14.1487 19.3652 13.1463 19.3652H3.06491C2.06255 19.3652 1.55174 18.8281 1.55174 17.8516V3.0957C1.55174 2.11914 2.06255 1.57227 3.06491 1.57227H13.1463C14.1487 1.57227 14.6595 2.11914 14.6595 3.0957V7.58789H16.2113V3.06641C16.2113 1.03516 15.2185 0 13.2234 0H2.98781C0.992724 0 0 1.03516 0 3.06641V17.8809C0 19.9219 0.992724 20.9375 2.98781 20.9375ZM8.91523 11.2402H18.8136L20.2592 11.1816L19.575 11.8457L18.0232 13.3203C17.8691 13.457 17.7919 13.6621 17.7919 13.8477C17.7919 14.2578 18.0714 14.5605 18.4666 14.5605C18.669 14.5605 18.8232 14.4824 18.9774 14.3359L22.1194 11.0352C22.3122 10.8398 22.37 10.6641 22.37 10.4688C22.37 10.2637 22.3122 10.0977 22.1194 9.90234L18.9774 6.60156C18.8232 6.45508 18.669 6.36719 18.4666 6.36719C18.0714 6.36719 17.7919 6.66016 17.7919 7.07031C17.7919 7.26562 17.8691 7.4707 18.0232 7.60742L19.575 9.0918L20.2592 9.75586L18.8136 9.6875H8.91523C8.51044 9.6875 8.1731 10.0488 8.1731 10.4688C8.1731 10.8887 8.51044 11.2402 8.91523 11.2402Z" fill="#8B73A4"/>
</g>
<defs>
<clipPath id="clip0_410_1961">
<rect width="22.37" height="20.9473" fill="white"/>
</clipPath>
</defs>
</svg>
