<svg width="110" height="125" viewBox="0 0 110 125" fill="none" xmlns="http://www.w3.org/2000/svg">
<path d="M47.2901 122.891L44.7251 122.89L43.5049 111.831L47.2907 111.831L47.2901 122.891Z" fill="#A0616A"/>
<path d="M38.5019 122.825C38.422 122.976 38.3799 123.461 38.3799 123.636C38.3799 124.173 38.7696 124.609 39.2505 124.609H47.1941C47.5221 124.609 47.788 124.312 47.788 123.945V123.576C47.788 123.576 48.181 122.464 47.372 121.095C47.372 121.095 46.3664 122.167 44.8639 120.488L44.4208 119.591L41.2135 122.213L39.4358 122.457C39.0468 122.511 38.702 122.449 38.5019 122.825H38.5019Z" fill="#2F2E41"/>
<path d="M35.798 122.891L33.2329 122.89L32.0127 111.831L35.7985 111.831L35.798 122.891Z" fill="#A0616A"/>
<path d="M27.0097 122.825C26.9298 122.976 26.8877 123.461 26.8877 123.636C26.8877 124.173 27.2775 124.609 27.7583 124.609H35.7019C36.0299 124.609 36.2959 124.312 36.2959 123.945V123.576C36.2959 123.576 36.6888 122.464 35.8798 121.095C35.8798 121.095 34.8742 122.167 33.3717 120.488L32.9286 119.591L29.7213 122.213L27.9436 122.457C27.5546 122.511 27.2098 122.449 27.0097 122.825H27.0097Z" fill="#2F2E41"/>
<path d="M47.5104 53.5083L49.8985 60.3486L48.0328 114.988H42.8088L38.1073 65.6874L36.9878 115.155L31.9131 114.988L26.3906 60.0984L30.0474 55.1767L47.5104 53.5083Z" fill="#2F2E41"/>
<path d="M36.2414 14.7188L42.5102 14.2183L44.4505 17.7218L50.2715 19.557L48.1073 36.491L50.4208 61.7668C50.4208 61.7668 42.0624 60.4321 41.4654 63.1015C40.8684 65.7709 26.2412 60.4321 26.2412 60.4321L31.2413 43.1645L30.7935 29.6507L29.4502 21.8093L35.5697 18.6394L36.2414 14.7188Z" fill="#E6E6E6"/>
<path d="M33.4061 19.7238C33.4061 19.7238 28.4107 19.6403 27.7367 21.9761C27.0627 24.3118 24.8239 40.495 24.8239 40.495L23.1074 47.5855L30.7941 43.3312L29.1523 40.4995L34.5255 28.9832L33.4061 19.7238H33.4061Z" fill="#E6E6E6"/>
<path d="M36.4619 45.6671C37.2879 45.668 38.0558 45.1359 38.3769 44.2853C38.6198 43.642 38.5969 43.0248 38.4151 42.4957C38.4736 42.4686 38.5316 42.4404 38.5915 42.4164C38.5035 42.3766 38.418 42.3316 38.3326 42.2865C38.0351 41.6236 37.4646 41.1426 36.7852 41.0258C35.9436 40.0181 35.4263 38.6679 35.4209 37.1819C35.4098 34.1193 37.6324 31.5611 40.3715 31.4876C40.3931 31.487 40.4146 31.4866 40.4361 31.4863C41.6627 31.4705 42.7754 32.2375 43.3968 33.4196C43.7594 34.1094 44.4295 34.5724 45.1972 34.5724C45.7849 34.5724 46.3151 34.3008 46.6941 33.8639C47.5199 32.9121 48.5538 32.2038 49.724 31.9865C50.4924 31.8438 51.2877 31.79 52.1014 31.8352C57.6717 32.1447 62.4641 37.6631 62.583 43.8958C62.7155 50.8376 57.7208 56.5115 51.5406 56.5115C48.3248 56.5115 45.4314 54.9743 43.4135 52.5221C42.5177 51.4335 41.2623 50.8237 39.939 50.8388C39.9256 50.8389 39.9121 50.839 39.8986 50.839C37.7554 50.839 36.0179 48.8969 36.0179 46.5013C36.0179 46.3684 36.0238 46.2372 36.0349 46.1076C36.0556 45.8653 36.2442 45.6668 36.4619 45.6671L36.4619 45.6671Z" fill="#432759"/>
<path d="M108.65 91.8623C108.379 91.3513 107.206 91.8984 106.991 91.4347C106.776 90.9726 107.866 90.2685 108.488 88.6601C108.6 88.3701 109.308 86.5423 108.784 85.9782C107.791 84.9092 103.248 89.3209 101.658 87.8772C101.309 87.5604 101.066 86.9279 100.01 85.9009C99.5895 85.4924 99.3354 85.308 99.0896 85.3766C98.7407 85.4739 98.7131 85.9958 98.339 87.022C97.778 88.5608 97.4462 88.4679 97.1194 89.6957C96.8767 90.6071 96.9321 91.137 96.6466 91.2403C96.2426 91.3864 95.8707 90.4196 95.3586 90.5062C94.8361 90.5945 94.5202 91.7201 94.4204 92.5629C94.2332 94.1444 94.7528 95.188 95.0407 96.2854C95.3537 97.4779 95.5395 99.2915 94.8167 101.859L87.6631 124.388C89.2424 119.765 93.8152 107.093 95.7367 102.383C96.2914 101.024 96.9039 99.6448 98.1615 99.1006C99.3722 98.5766 101.035 98.8895 103.155 98.3186C103.403 98.2519 104.09 98.0566 104.176 97.6049C104.248 97.2314 103.843 97.023 103.906 96.6732C103.989 96.2041 104.783 96.1983 105.76 95.6571C106.449 95.2754 106.878 94.8215 107.247 94.4312C107.358 94.3135 109.011 92.5425 108.65 91.8623Z" fill="#F2F2F2"/>
<path d="M80.5062 103.723C80.2036 103.724 80.1054 104.525 79.8396 104.51C79.5747 104.494 79.58 103.693 79.0534 102.888C78.9584 102.742 78.36 101.827 77.9612 101.952C77.2053 102.188 77.8316 105.953 76.739 106.409C76.4992 106.509 76.1511 106.46 75.3955 106.743C75.0949 106.856 74.9406 106.942 74.8998 107.097C74.8419 107.316 75.0631 107.482 75.4057 107.983C75.9196 108.735 75.783 108.89 76.2278 109.424C76.558 109.82 76.8067 109.942 76.7696 110.129C76.7172 110.393 76.1854 110.318 76.0757 110.624C75.9637 110.936 76.3668 111.434 76.708 111.732C77.3484 112.291 77.9566 112.307 78.5215 112.465C79.1354 112.638 79.9854 113.059 80.9041 114.196L88.7325 124.621C87.1583 122.421 82.9132 116.256 81.3998 113.843C80.9629 113.146 80.5342 112.413 80.6581 111.566C80.7773 110.75 81.3945 109.928 81.7555 108.6C81.7977 108.445 81.9101 108.012 81.7367 107.834C81.5934 107.687 81.3852 107.849 81.2496 107.714C81.0676 107.533 81.2944 107.095 81.3385 106.403C81.3696 105.915 81.2941 105.549 81.2291 105.234C81.2096 105.139 80.909 103.721 80.5062 103.723V103.723Z" fill="#F2F2F2"/>
<path d="M86.5436 105.237L86.3613 103.418L86.4446 103.28C86.8301 102.643 87.0265 102.02 87.0289 101.429C87.0293 101.335 87.0254 101.241 87.0214 101.145C87.0057 100.765 86.9861 100.294 87.2061 99.7439C87.3295 99.4373 87.676 98.7276 88.1971 98.8154C88.3373 98.8374 88.4434 98.9094 88.524 98.9937C88.5357 98.9727 88.5479 98.9516 88.5609 98.9287C88.7232 98.652 88.8517 98.5335 88.9754 98.4193C89.0705 98.3314 89.1687 98.2409 89.3228 98.0266C89.3904 97.9326 89.443 97.8501 89.4874 97.7807C89.6222 97.5707 89.7982 97.3204 90.1086 97.3248C90.4402 97.3423 90.6139 97.6489 90.729 97.8518C90.9345 98.2137 91.0277 98.4746 91.0894 98.6476C91.1117 98.7109 91.1373 98.782 91.1503 98.804C91.2571 98.9797 92.1259 98.8154 92.4532 98.7557C93.1883 98.6187 93.8245 98.5001 94.0866 99.0183C94.2744 99.389 94.1349 99.8792 93.6595 100.514C93.5113 100.712 93.3538 100.862 93.2139 100.98C93.3298 101.057 93.4335 101.176 93.4756 101.362C93.5746 101.803 93.2355 102.245 92.4681 102.677C92.2775 102.785 92.021 102.929 91.6615 102.998C91.4921 103.031 91.3396 103.039 91.2092 103.043C91.2064 103.128 91.1888 103.219 91.1428 103.313C91.008 103.59 90.7275 103.721 90.3047 103.69C89.8395 103.662 89.4564 103.563 89.1185 103.476C88.8234 103.401 88.5692 103.337 88.3695 103.352C87.9994 103.385 87.7142 103.716 87.3794 104.146L86.5436 105.237Z" fill="#F2F2F2"/>
<path d="M87.3886 94.4062L85.8606 95.0648L85.7201 95.0097C85.0705 94.7547 84.4817 94.7003 83.9696 94.8477C83.8881 94.8711 83.8078 94.8992 83.7259 94.9277C83.4015 95.0409 82.9983 95.1818 82.4667 95.0834C82.1701 95.0278 81.468 94.8331 81.4118 94.2475C81.3953 94.0902 81.4307 93.9573 81.4832 93.8488C81.462 93.8414 81.4406 93.8335 81.4176 93.8253C81.137 93.72 81.0018 93.6112 80.8716 93.5063C80.7714 93.4258 80.6682 93.3426 80.4437 93.2304C80.3452 93.1812 80.2604 93.1452 80.1891 93.1148C79.9732 93.0223 79.7119 92.8955 79.637 92.5587C79.5681 92.1957 79.7893 91.9302 79.9357 91.7542C80.1968 91.4402 80.3989 91.2734 80.533 91.1628C80.5821 91.1225 80.6371 91.0769 80.6529 91.0573C80.7778 90.8971 80.4153 89.9995 80.2806 89.6608C79.9755 88.9006 79.7115 88.2429 80.0935 87.8281C80.3667 87.531 80.8262 87.5575 81.4964 87.9104C81.705 88.0205 81.875 88.1527 82.0123 88.2741C82.0498 88.1292 82.1261 87.9869 82.2766 87.8943C82.6331 87.6753 83.1014 87.9299 83.6701 88.65C83.8119 88.8286 84.0016 89.0695 84.1529 89.4406C84.224 89.6155 84.2695 89.7783 84.3064 89.9183C84.38 89.8999 84.4636 89.8958 84.5566 89.9217C84.8302 89.9972 85.0154 90.2671 85.0953 90.7323C85.1897 91.2422 85.201 91.6816 85.2114 92.069C85.2209 92.4072 85.2299 92.6983 85.2935 92.9104C85.4162 93.3021 85.7752 93.5265 86.2318 93.7796L87.3886 94.4062L87.3886 94.4062Z" fill="#F2F2F2"/>
<path d="M86.5436 89.0468L86.3613 87.2276L86.4446 87.0897C86.8301 86.452 87.0265 85.8292 87.0289 85.238C87.0293 85.144 87.0254 85.05 87.0214 84.9543C87.0057 84.5748 86.9861 84.1031 87.2061 83.5532C87.3295 83.2466 87.676 82.5369 88.1971 82.6247C88.3373 82.6467 88.4434 82.7187 88.524 82.8031C88.5357 82.782 88.5479 82.7609 88.5609 82.7381C88.7232 82.4614 88.8517 82.3428 88.9754 82.2286C89.0705 82.1407 89.1687 82.0503 89.3228 81.8359C89.3904 81.7419 89.443 81.6594 89.4874 81.59C89.6222 81.38 89.7982 81.1297 90.1086 81.1341C90.4402 81.1517 90.6139 81.4582 90.729 81.6611C90.9345 82.023 91.0277 82.2839 91.0894 82.457C91.1117 82.5202 91.1373 82.5914 91.1503 82.6133C91.2571 82.789 92.1259 82.6247 92.4532 82.565C93.1883 82.428 93.8245 82.3094 94.0866 82.8277C94.2744 83.1983 94.1349 83.6885 93.6595 84.3236C93.5113 84.5212 93.3538 84.6714 93.2139 84.7891C93.3298 84.8664 93.4335 84.985 93.4756 85.1712C93.5746 85.6122 93.2355 86.054 92.4681 86.4862C92.2775 86.5943 92.021 86.7383 91.6615 86.8077C91.4921 86.8402 91.3396 86.8481 91.2092 86.8525C91.2064 86.9368 91.1888 87.0282 91.1428 87.1222C91.008 87.3989 90.7275 87.5306 90.3047 87.499C89.8395 87.4718 89.4564 87.3725 89.1185 87.2856C88.8234 87.21 88.5692 87.1459 88.3695 87.1608C87.9994 87.1942 87.7142 87.5254 87.3794 87.9549L86.5436 89.0468Z" fill="#F2F2F2"/>
<path d="M88.2086 124.359L87.8675 124.12L87.785 123.68L87.8675 124.12L87.4699 124.171C87.4636 124.129 87.442 124.034 87.4094 123.886C87.2314 123.073 86.6887 120.597 86.2361 116.699C85.9202 113.978 85.7414 111.18 85.7045 108.382C85.6675 105.58 85.7862 103.459 85.8813 101.754C85.9532 100.468 86.0404 99.2432 86.1261 98.0503C86.354 94.8635 86.5689 91.8532 86.409 88.5205C86.3736 87.7765 86.2994 86.2279 85.4899 84.58C85.0204 83.6243 84.3737 82.7757 83.5674 82.059L84.0687 81.3545C84.9587 82.1468 85.6742 83.0867 86.1956 84.1478C87.0931 85.9749 87.174 87.6623 87.2129 88.4731C87.3756 91.8646 87.1583 94.9039 86.928 98.1215C86.8432 99.31 86.7559 100.529 86.6844 101.81C86.5901 103.499 86.4726 105.602 86.5092 108.368C86.5453 111.132 86.7221 113.896 87.0337 116.583C87.4809 120.432 88.0156 122.871 88.1913 123.672C88.2848 124.099 88.3044 124.189 88.2086 124.359Z" fill="#F2F2F2"/>
<path d="M82.0917 83.4883C82.0587 83.4883 82.0253 83.4874 81.9915 83.4848C81.3062 83.4435 80.6717 82.985 80.1051 82.1224C79.8395 81.7166 79.7035 81.2536 79.4324 80.3304C79.3903 80.1881 79.186 79.4661 79.0619 78.4726C78.9805 77.8235 78.9907 77.552 79.1059 77.3122C79.2336 77.0452 79.4403 76.859 79.6729 76.7334C79.6626 76.6473 79.6709 76.5586 79.7043 76.4681C79.8414 76.093 80.2061 76.1422 80.4033 76.1659C80.5031 76.18 80.6277 76.1984 80.762 76.1905C80.9734 76.1791 81.087 76.1088 81.2591 76.0034C81.4237 75.9024 81.6284 75.7768 81.9322 75.7074C82.531 75.5677 83.0327 75.7575 83.1982 75.8198C84.0685 76.144 84.4975 76.9003 84.9942 77.776C85.0932 77.9517 85.4331 78.5912 85.6575 79.4678C85.8193 80.1003 85.7965 80.3814 85.7478 80.5905C85.6488 81.02 85.415 81.2659 84.8213 81.8088C84.2013 82.3771 83.8901 82.6617 83.6229 82.8348C83.0009 83.2362 82.6103 83.4883 82.0917 83.4883V83.4883Z" fill="#F2F2F2"/>
<path d="M54.8239 41.9969L17.659 34.1555L17.5098 37.1586L54.3761 47.002L54.8239 41.9969Z" fill="#432759"/>
<path d="M18.1074 34.6559L17.6597 34.1554C17.6597 34.1554 15.7193 33.1544 15.7193 32.9875C15.7193 32.8831 12.8541 31.7983 10.7104 31.0012C9.51324 30.5561 8.24891 31.437 8.07844 32.8343L7.80981 35.0363C7.64918 36.353 8.53794 37.5381 9.72581 37.5912L14.973 37.8258L17.5104 37.1585L18.1074 34.6559Z" fill="#432759"/>
<path d="M54.7498 42.9145L54.8385 42.4988L17.6498 34.5518L17.585 35.0731L54.7498 42.9145Z" fill="#3F3D56"/>
<path d="M54.6646 43.7036L54.7498 43.248L17.6094 35.3743L17.585 35.9072L54.6646 43.7036Z" fill="#3F3D56"/>
<path d="M54.5793 44.6493L54.6004 43.9153L17.5801 35.9731L17.5848 36.4077L54.5793 44.6493Z" fill="#3F3D56"/>
<path d="M54.48 45.7476L54.451 45.0831L17.5259 36.5718L17.4941 36.7347L54.48 45.7476Z" fill="#3F3D56"/>
<path d="M54.4788 46.4137L54.4505 45.9173L17.5809 36.8472L17.5479 37.0098L54.4788 46.4137Z" fill="#3F3D56"/>
<path d="M33.1238 18.6602L34.973 17.5156L35.7751 35.8237L35.4954 38.076C35.4954 38.076 30.8268 23.686 33.1238 18.6602H33.1238Z" fill="#3F3D56"/>
<path d="M39.4512 12.9669C42.0066 12.9669 44.0781 10.6514 44.0781 7.79499C44.0781 4.93861 42.0066 2.62305 39.4512 2.62305C36.8958 2.62305 34.8242 4.93861 34.8242 7.79499C34.8242 10.6514 36.8958 12.9669 39.4512 12.9669Z" fill="#A0616A"/>
<path d="M35.4956 10.8816L36.6017 11.8686L35.3463 6.54382C35.3463 6.54382 38.8538 6.46041 39.1524 4.29153C39.1524 4.29153 41.9136 4.20811 42.6599 4.20811C43.4062 4.20811 43.7429 9.72779 43.7429 9.72779C43.7429 9.72779 45.1973 5.20913 43.7047 2.87341C42.2121 0.537696 42.7345 1.95581 42.436 1.12163C42.1375 0.287443 39.0777 -0.479745 37.1374 0.370861C35.1971 1.22147 35.1224 2.43399 34.5254 2.44516C33.9284 2.45632 31.8388 5.79306 33.7791 8.46245C35.7195 11.1318 35.4956 10.8816 35.4956 10.8816Z" fill="#2F2E41"/>
<path d="M49.6312 44.821C50.1796 44.3318 50.5837 43.7448 50.8115 43.1646L56.2993 38.8738L54.3963 36.0146L49.0344 40.675C48.4777 40.7944 47.8759 41.1046 47.3275 41.5937C46.0746 42.7111 45.5746 44.3394 46.2108 45.2306C46.847 46.1218 48.3783 45.9384 49.6312 44.821Z" fill="#A0616A"/>
<path d="M28.6069 38.2944C28.2 38.9333 27.9559 39.6219 27.8797 40.2498L23.6592 46.0621L26.1922 48.226L30.2008 42.097C30.7066 41.8111 31.2089 41.3279 31.6158 40.6891C32.5455 39.2296 32.6255 37.5104 31.7946 36.8492C30.9638 36.1879 29.5366 36.835 28.6069 38.2944L28.6069 38.2944Z" fill="#A0616A"/>
<path d="M47.8834 20.6417C47.8834 20.6417 49.2267 18.1391 50.57 19.6407C51.633 20.8288 57.4623 28.3894 59.8491 31.4934C60.5073 32.3494 60.8687 33.4401 60.8687 34.5688C60.8687 36.3148 60.0063 37.918 58.6268 38.7369L51.167 43.1647L49.0774 39.6611L55.4955 34.4892L45.6445 28.483L47.8834 20.6417V20.6417Z" fill="#E6E6E6"/>
<path d="M24.2956 43.7037L23.1074 47.5859L26.5403 49.5879L29.1523 47.5859L30.7941 43.3315L25.9433 41.7466" fill="#E6E6E6"/>
<path d="M79.7942 6.49487L68.5183 9.91869L70.1589 18.0972C69.6284 17.6993 68.9903 17.4668 68.3034 17.4668C66.4617 17.4668 64.9688 19.1356 64.9688 21.1942C64.9688 23.2529 66.4617 24.9217 68.3034 24.9217C70.1452 24.9217 71.6381 23.2529 71.6381 21.1942C71.6381 20.4787 71.4546 19.8127 71.1419 19.245L69.8411 12.7608L79.5688 9.34221L80.4585 14.1723C79.9245 13.7663 79.2799 13.5285 78.5854 13.5285C76.7437 13.5285 75.2507 15.1974 75.2507 17.256C75.2507 19.3146 76.7437 20.9835 78.5854 20.9835C80.4271 20.9835 81.9201 19.3146 81.9201 17.256C81.9201 16.5329 81.7328 15.8601 81.414 15.2886L79.7942 6.49487Z" fill="white"/>
<path d="M90.8528 14.1401C89.0302 14.1401 87.5527 15.7916 87.5527 17.8289C87.5527 18.4048 87.6742 18.9477 87.8847 19.4334L89.7682 28.1179L90.8374 27.8282L89.3844 21.1288C89.8271 21.3754 90.3245 21.5177 90.8528 21.5177C92.6754 21.5177 94.1529 19.8661 94.1529 17.8289C94.1529 15.7917 92.6754 14.1401 90.8528 14.1401Z" fill="white"/>
<path d="M104.282 33.2804L102.412 24.9214L101.277 25.2196L102.74 31.7579C102.29 31.5302 101.79 31.3994 101.261 31.3994C99.3255 31.3994 97.7568 33.0996 97.7568 35.1968C97.7568 37.294 99.3255 38.9942 101.261 38.9942C103.196 38.9942 104.764 37.294 104.764 35.1968C104.764 34.4969 104.587 33.8434 104.282 33.2804V33.2804Z" fill="white"/>
<path d="M109.175 124.661C109.175 124.803 109.071 124.919 108.944 124.919H0V124.403H108.944C109.071 124.403 109.175 124.518 109.175 124.661L109.175 124.661Z" fill="#E6E6E6"/>
</svg>
