<svg width="23" height="25" viewBox="0 0 23 25" fill="none" xmlns="http://www.w3.org/2000/svg">
<g clip-path="url(#clip0_410_1943)">
<path d="M11.4806 24.0836C12.0554 24.0836 12.5061 23.6095 12.5061 23.0171V14.2243L15.8755 10.9536C17.1601 11.1313 18.5124 10.5744 19.6956 9.3301L13.4978 2.80066C12.3033 4.04492 11.8074 5.44324 11.9878 6.80601L1.50776 18.6681C1.07955 19.1539 1.01194 19.8293 1.54157 20.3863L0.0991687 22.3416C-0.0360568 22.5312 -0.0473256 22.8038 0.155513 23.0171L0.482308 23.3725C0.673877 23.5739 0.93306 23.5858 1.1359 23.42L2.99525 21.8912C3.50235 22.4482 4.15594 22.3771 4.60669 21.9268L10.4552 16.2387V23.0171C10.4552 23.6095 10.9059 24.0836 11.4806 24.0836ZM2.66845 19.6397L12.6075 8.54798C12.7991 8.89164 13.0245 9.21159 13.3062 9.53154C13.5766 9.8278 13.8922 10.1004 14.1852 10.29L3.70518 20.73L2.66845 19.6397ZM14.6246 1.60379L20.8338 8.13323C22.817 6.0713 22.8959 3.42871 20.9915 1.43789C19.0984 -0.529242 16.608 -0.481842 14.6246 1.60379Z" fill="#8B73A4"/>
</g>
<defs>
<clipPath id="clip0_410_1943">
<rect width="22.3718" height="25" fill="white"/>
</clipPath>
</defs>
</svg>
