<svg width="30" height="30" viewBox="0 0 30 30" fill="none" xmlns="http://www.w3.org/2000/svg">
<g clip-path="url(#clip0_410_1921)">
<path d="M15 29.9854C23.2059 29.9854 30 23.1799 30 14.9927C30 6.79081 23.1912 0 14.9853 0C6.79411 0 0 6.79081 0 14.9927C0 23.1799 6.80881 29.9854 15 29.9854ZM15 27.4866C8.05881 27.4866 2.5147 21.9305 2.5147 14.9927C2.5147 8.05489 8.04411 2.49879 14.9853 2.49879C21.9264 2.49879 27.4999 8.05489 27.4999 14.9927C27.4999 21.9305 21.9411 27.4866 15 27.4866Z" fill="#2A2A3B" fill-opacity="0.85"/>
<path d="M8.52912 20.2989H21.485C22.235 20.2989 22.6762 19.9021 22.6762 19.3288C22.6762 18.5056 21.8674 17.7854 21.1468 17.0505C20.588 16.4773 20.485 15.3161 20.4262 14.39C20.3526 11.2592 19.5144 9.1132 17.3673 8.31946C17.0439 7.27586 16.191 6.42334 14.9997 6.42334C13.8085 6.42334 12.9703 7.27586 12.6321 8.31946C10.485 9.1132 9.64677 11.2592 9.58795 14.39C9.51442 15.3161 9.39676 16.4773 8.85266 17.0505C8.16148 17.8002 7.32324 18.5056 7.32324 19.3288C7.32324 19.9021 7.76442 20.2989 8.52912 20.2989ZM14.9997 23.6943C16.382 23.6943 17.3967 22.7095 17.485 21.5189H12.5144C12.6174 22.7095 13.6174 23.6943 14.9997 23.6943Z" fill="#2A2A3B" fill-opacity="0.85"/>
</g>
<defs>
<clipPath id="clip0_410_1921">
<rect width="30" height="30" fill="white"/>
</clipPath>
</defs>
</svg>
