<svg width="63" height="60" viewBox="0 0 63 60" fill="none" xmlns="http://www.w3.org/2000/svg">
<rect width="62.8743" height="60" rx="10" fill="#6B6FDB"/>
<g clip-path="url(#clip0_521_3)">
<path d="M41.7065 22.0451V16.0072C41.7065 15.1561 40.9751 14.6101 40.1078 14.7707L31.3662 16.5692C30.2778 16.794 29.6826 17.3561 29.6826 18.2553L29.7166 36.1123C29.8016 36.8991 29.4105 37.413 28.6621 37.5575L25.958 38.0873C22.5567 38.7619 20.958 40.3998 20.958 42.8246C20.958 45.2815 22.9648 46.9999 25.788 46.9999C28.288 46.9999 32.0295 45.2655 32.0295 40.5926V25.8991C32.0295 25.048 32.1996 24.8714 32.9989 24.7108L40.7711 23.105C41.3493 22.9925 41.7065 22.575 41.7065 22.0451Z" fill="white"/>
</g>
<defs>
<clipPath id="clip0_521_3">
<rect width="20.7485" height="33" fill="white" transform="translate(20.958 14)"/>
</clipPath>
</defs>
</svg>
