<svg width="30" height="30" viewBox="0 0 30 30" fill="none" xmlns="http://www.w3.org/2000/svg">
<rect width="30" height="30" rx="15" fill="#783DA6"/>
<path d="M14.2305 22.3125C11.5449 22.3125 9.89453 21.1504 9.23047 19.7637C9.07422 19.4414 9.00586 19.1289 9.00586 18.8359C9.00586 18.0742 9.49414 17.5957 10.3047 17.5957C10.8906 17.5957 11.2617 17.8301 11.5547 18.3672C12.0527 19.3535 12.8145 19.9395 14.2793 19.9395C15.7246 19.9395 16.7207 19.0996 16.7207 17.9277C16.7305 16.5605 15.7246 15.7988 14.0156 15.7988H13.4004C12.6875 15.7988 12.2773 15.3789 12.2773 14.7441C12.2773 14.1289 12.6875 13.6992 13.4004 13.6992H13.9766C15.4512 13.6992 16.4082 12.8984 16.4082 11.7461C16.4082 10.6133 15.6465 9.86133 14.2207 9.86133C13.0293 9.86133 12.3066 10.3594 11.8477 11.3555C11.5254 12.0195 11.1836 12.2637 10.5195 12.2637C9.69922 12.2637 9.2793 11.7852 9.2793 11.0723C9.2793 10.7402 9.34766 10.457 9.49414 10.125C10.1191 8.74805 11.7207 7.5957 14.2109 7.5957C17.1895 7.5957 19.2012 9.07031 19.2012 11.3262C19.2012 13.1133 17.9219 14.2852 16.2617 14.627V14.6855C18.3613 14.8809 19.7188 16.1113 19.7188 18.0547C19.7188 20.6133 17.502 22.3125 14.2305 22.3125Z" fill="white"/>
</svg>
