<svg width="30" height="30" viewBox="0 0 30 30" fill="none" xmlns="http://www.w3.org/2000/svg">
<rect width="30" height="30" rx="15" fill="#783DA6"/>
<path d="M11.3633 22C10.4355 22 9.97656 21.4824 9.97656 20.7402C9.97656 20.1836 10.1914 19.8125 10.7871 19.2656L14.9863 15.252C16.7246 13.582 17.1738 12.8984 17.1738 11.8828C17.1738 10.7207 16.2754 9.89062 15.0156 9.89062C13.8828 9.89062 13.1016 10.457 12.5938 11.5898C12.2617 12.1758 11.9199 12.4492 11.2852 12.4492C10.4941 12.4492 10.0254 11.9805 10.0254 11.248C10.0254 11.0234 10.0645 10.8184 10.1328 10.6133C10.6113 9.05078 12.3789 7.5957 15.0449 7.5957C18.0332 7.5957 20.0449 9.27539 20.0449 11.6973C20.0449 13.416 19.2051 14.4902 16.9004 16.668L13.8535 19.5977V19.6562H19.166C19.9277 19.6562 20.3867 20.1152 20.3867 20.8281C20.3867 21.5215 19.9277 22 19.166 22H11.3633Z" fill="white"/>
</svg>
