<svg width="72" height="60" viewBox="0 0 72 60" fill="none" xmlns="http://www.w3.org/2000/svg">
<rect width="72" height="60" rx="10" fill="#A964DF"/>
<g clip-path="url(#clip0_524_5)">
<path d="M21.5529 38.1361C22.6335 38.1361 23.1981 37.6286 23.1981 36.657V25.1291C23.1981 24.1576 22.6335 23.6501 21.5529 23.6501C20.4561 23.6501 19.8916 24.1576 19.8916 25.1291V36.657C19.8916 37.6286 20.4561 38.1361 21.5529 38.1361ZM29.9723 34.4819C31.0529 34.4819 31.6174 33.9744 31.6174 32.9884V28.7978C31.6174 27.8117 31.0529 27.3042 29.9723 27.3042C28.8916 27.3042 28.3271 27.8117 28.3271 28.7978V32.9884C28.3271 33.9744 28.8916 34.4819 29.9723 34.4819ZM38.3917 43.9073C39.4723 43.9073 40.0529 43.3997 40.0529 42.4282V19.358C40.0529 18.3864 39.4723 17.8789 38.3917 17.8789C37.311 17.8789 36.7303 18.3864 36.7303 19.358V42.4282C36.7303 43.3997 37.311 43.9073 38.3917 43.9073ZM46.811 34.4819C47.8916 34.4819 48.4561 33.9744 48.4561 32.9884V28.7978C48.4561 27.8117 47.8916 27.3042 46.811 27.3042C45.7303 27.3042 45.1658 27.8117 45.1658 28.7978V32.9884C45.1658 33.9744 45.7303 34.4819 46.811 34.4819ZM55.2304 38.1361C56.3271 38.1361 56.8916 37.6286 56.8916 36.657V25.1291C56.8916 24.1576 56.3271 23.6501 55.2304 23.6501C54.1498 23.6501 53.5852 24.1576 53.5852 25.1291V36.657C53.5852 37.6286 54.1498 38.1361 55.2304 38.1361Z" fill="white"/>
</g>
<defs>
<clipPath id="clip0_524_5">
<rect width="37" height="26.0284" fill="white" transform="translate(19.8916 17.8789)"/>
</clipPath>
</defs>
</svg>
