<svg width="424" height="301" viewBox="0 0 424 301" fill="none" xmlns="http://www.w3.org/2000/svg">
<g clip-path="url(#clip0_433_94)">
<path d="M421.576 98.4313C415.739 118.727 398.694 132.934 380.914 145.002C378.431 146.688 375.948 148.334 373.464 149.942C373.447 149.95 373.43 149.965 373.413 149.973C373.293 150.05 373.173 150.127 373.062 150.205C372.549 150.536 372.037 150.867 371.528 151.195L371.807 151.32C371.807 151.32 372.082 151.466 371.782 151.344C371.692 151.306 371.599 151.273 371.51 151.235C361.181 147.06 350.668 142.577 342.753 134.756C334.541 126.635 329.743 113.896 334.189 103.227C334.773 101.829 335.512 100.501 336.39 99.2676C336.751 98.7504 337.139 98.2554 337.543 97.7695C339.996 94.7696 343.202 92.4784 346.831 91.1317C350.46 89.785 354.381 89.4313 358.192 90.107C362.003 90.7826 365.565 92.4633 368.513 94.9761C371.46 97.489 373.687 100.743 374.964 104.405C376.27 92.2158 366.241 82.0059 356.59 74.4725C346.935 66.9429 335.964 58.7431 334.097 46.622C333.055 39.878 335.395 33.3424 339.658 28.0959C339.79 27.9365 339.921 27.7773 340.057 27.6222C345.246 21.5116 352.545 17.5877 360.494 16.6343C375.299 15.0922 389.68 22.946 400.436 33.2623C417.747 49.8606 428.212 75.3555 421.576 98.4313Z" fill="#F2F2F2"/>
<path d="M393.747 71.8848C396.589 76.3152 398.77 81.1372 400.223 86.1986C401.452 90.7225 401.998 95.4049 401.845 100.091C401.579 109.722 398.622 119.134 393.97 127.517C390.37 133.874 385.983 139.748 380.914 145.002C378.431 146.688 375.948 148.334 373.464 149.942C373.447 149.949 373.429 149.965 373.412 149.973C373.293 150.05 373.173 150.127 373.062 150.204C372.549 150.535 372.036 150.867 371.528 151.194C371.528 151.194 372.081 151.466 371.781 151.343C371.692 151.306 371.598 151.272 371.509 151.235C372.435 143.628 371.528 135.91 368.865 128.727C366.201 121.544 361.858 115.106 356.201 109.951C350.529 104.875 343.741 101.215 336.39 99.2674C336.75 98.7501 337.139 98.2551 337.543 97.7692C340.382 98.5672 343.146 99.6151 345.801 100.901C355.292 105.469 363.063 112.977 367.965 122.316C372.363 130.796 374.256 140.357 373.421 149.878C373.846 149.492 374.271 149.099 374.683 148.709C382.531 141.375 389.503 132.957 394.221 123.242C398.314 115.015 400.326 105.905 400.079 96.7156C399.694 86.6951 395.71 77.4136 389.942 69.3335C383.763 60.6859 376.017 53.0351 367.745 46.4072C359.273 39.6063 350.002 33.87 340.139 29.3261C339.916 29.2221 339.742 29.0364 339.653 28.8073C339.563 28.5783 339.565 28.3235 339.657 28.0956C339.723 27.8912 339.867 27.7209 340.057 27.622C340.155 27.5797 340.261 27.5601 340.368 27.5646C340.474 27.5691 340.578 27.5977 340.672 27.6482C341.89 28.21 343.099 28.7795 344.299 29.3737C354.29 34.323 363.63 40.497 372.102 47.7541C380.286 54.7466 387.991 62.7356 393.747 71.8848Z" fill="white"/>
<path d="M326.309 214.64C338.267 214.64 347.961 204.925 347.961 192.941C347.961 180.957 338.267 171.242 326.309 171.242C314.351 171.242 304.658 180.957 304.658 192.941C304.658 204.925 314.351 214.64 326.309 214.64Z" fill="#2F2E41"/>
<path d="M309.409 181.241C312.908 177.735 313.617 172.76 310.993 170.131C308.369 167.501 303.405 168.211 299.906 171.718C296.408 175.224 295.699 180.199 298.323 182.829C300.947 185.458 305.91 184.748 309.409 181.241Z" fill="#2F2E41"/>
<path d="M348.875 174.351C350.333 170.931 347.826 166.579 343.276 164.631C338.726 162.683 333.855 163.876 332.397 167.296C330.94 170.717 333.447 175.068 337.997 177.016C342.547 178.964 347.418 177.771 348.875 174.351Z" fill="#2F2E41"/>
<path d="M372.162 286.108C368.441 288.698 364.51 290.97 360.409 292.899L359.803 291.826L354 281.618L353.492 280.722L350.524 275.501L350.517 275.495L341.146 258.993L336.329 250.521L350.634 240.467L356.198 252.258L359.215 258.662L371.635 284.986L372.162 286.108Z" fill="#A0616A"/>
<path d="M359.381 246.295L357.587 243.479L349.654 231.007C348.571 228.584 346.574 226.69 344.1 225.74C341.626 224.79 338.877 224.861 336.456 225.938C334.034 227.015 332.138 229.01 331.181 231.486C330.224 233.962 330.286 236.717 331.352 239.148L336.255 256.656C336.394 257.152 336.636 257.612 336.966 258.005C337.297 258.399 337.707 258.717 338.171 258.939C338.634 259.16 339.139 259.28 339.652 259.289C340.166 259.298 340.675 259.198 341.146 258.993C341.165 258.987 341.177 258.981 341.195 258.975L356.198 252.258L357.814 251.534C358.286 251.321 358.706 251.009 359.047 250.619C359.388 250.228 359.642 249.769 359.79 249.273C359.939 248.776 359.979 248.253 359.909 247.739C359.838 247.225 359.658 246.733 359.381 246.295Z" fill="#783DA6"/>
<path d="M316.276 246.687L312.101 256.135L311.195 258.19L295.739 293.182L295.243 294.304C291.058 292.555 287.028 290.454 283.197 288.022L283.613 286.844L296.229 251.172L299.326 242.412L306.108 244.123L316.276 246.687Z" fill="#A0616A"/>
<path d="M343.119 206.954C347.987 198.03 344.714 186.841 335.809 181.962C326.905 177.084 315.74 180.364 310.872 189.288C306.004 198.212 309.277 209.402 318.182 214.28C327.086 219.158 338.251 215.879 343.119 206.954Z" fill="#A0616A"/>
<path d="M359.026 250.644C358.76 248.217 358.279 245.819 357.587 243.479C355.504 236.431 351.52 230.097 346.074 225.173C344.073 223.373 341.478 222.379 338.789 222.382H312.903C311.042 222.377 309.212 222.85 307.586 223.756C305.96 224.662 304.592 225.97 303.614 227.557C302.637 229.143 302.081 230.954 302 232.816C301.919 234.679 302.315 236.532 303.152 238.197L306.109 244.123L312.101 256.134L313.539 259.012L319.948 271.864L320.457 272.882L352.99 281.851L353.131 281.538C353.254 281.262 353.376 280.992 353.492 280.722C353.67 280.311 353.847 279.912 354.013 279.507C357.294 271.71 358.842 264.772 359.216 258.662C359.383 255.989 359.32 253.306 359.026 250.644Z" fill="#783DA6"/>
<path d="M317.598 225.744C315.203 224.619 312.462 224.492 309.974 225.388C307.485 226.285 305.453 228.134 304.321 230.529L302.013 234.019L294.301 245.687C294.015 246.12 293.825 246.61 293.744 247.123C293.664 247.636 293.695 248.161 293.835 248.661C293.975 249.161 294.221 249.625 294.556 250.021C294.891 250.417 295.307 250.736 295.776 250.957L296.229 251.172L311.195 258.19L312.26 258.686C312.662 258.876 313.096 258.986 313.539 259.012C314.131 259.059 314.725 258.955 315.266 258.711C315.738 258.499 316.159 258.188 316.5 257.798C316.841 257.409 317.095 256.95 317.243 256.454L322.421 239.086C323.545 236.676 323.668 233.917 322.764 231.415C321.859 228.914 320.001 226.874 317.598 225.744Z" fill="#783DA6"/>
<path d="M354.013 279.507C353.903 279.126 353.727 278.766 353.492 278.446C352.655 277.321 351.655 276.329 350.524 275.502L350.517 275.495C346.582 272.508 338.746 269.017 323.633 268.925H323.609C322.916 268.925 322.238 269.124 321.655 269.499C321.072 269.875 320.609 270.41 320.322 271.042L319.948 271.864L317.543 277.164C317.339 277.62 317.015 278.012 316.606 278.299C314.433 279.839 307.516 285.421 303.942 296.083C303.813 296.463 303.69 296.85 303.574 297.249C318.858 301.724 335.121 301.576 350.322 296.825L350.658 295.433L354 281.618L354.056 281.391C354.207 280.77 354.192 280.12 354.013 279.507Z" fill="#2F2E41"/>
<path d="M307.688 186.537C311.887 189.438 316.87 190.981 321.97 190.961C320.151 192.225 318.08 193.079 315.9 193.464C322.68 194.921 329.688 194.961 336.485 193.58C337.995 193.337 339.453 192.835 340.794 192.096C341.462 191.722 342.044 191.212 342.502 190.598C342.96 189.983 343.285 189.279 343.454 188.531C343.905 185.946 341.895 183.597 339.806 182.013C336.607 179.626 332.919 177.982 329.008 177.199C325.097 176.415 321.062 176.513 317.193 177.485C314.667 178.139 312.137 179.245 310.496 181.278C308.855 183.311 308.369 186.445 309.933 188.538L307.688 186.537Z" fill="#2F2E41"/>
<path d="M333.036 19.1978H1.0752V20.5312H333.036V19.1978Z" fill="#3F3D56"/>
<path d="M12.3846 14.5044C14.589 14.5044 16.3761 12.7135 16.3761 10.5042C16.3761 8.29489 14.589 6.50391 12.3846 6.50391C10.1801 6.50391 8.39307 8.29489 8.39307 10.5042C8.39307 12.7135 10.1801 14.5044 12.3846 14.5044Z" fill="#3F3D56"/>
<path d="M23.8602 14.5044C26.0646 14.5044 27.8517 12.7135 27.8517 10.5042C27.8517 8.29489 26.0646 6.50391 23.8602 6.50391C21.6557 6.50391 19.8687 8.29489 19.8687 10.5042C19.8687 12.7135 21.6557 14.5044 23.8602 14.5044Z" fill="#3F3D56"/>
<path d="M35.3358 14.5044C37.5402 14.5044 39.3273 12.7135 39.3273 10.5042C39.3273 8.29489 37.5402 6.50391 35.3358 6.50391C33.1313 6.50391 31.3442 8.29489 31.3442 10.5042C31.3442 12.7135 33.1313 14.5044 35.3358 14.5044Z" fill="#3F3D56"/>
<path d="M261.143 96.5814H72.7338C72.173 96.5814 71.6178 96.4708 71.0998 96.2557C70.5817 96.0407 70.111 95.7255 69.7145 95.3281C69.318 94.9307 69.0035 94.459 68.7889 93.9398C68.5743 93.4206 68.4639 92.8641 68.4639 92.3022C68.4639 91.7402 68.5743 91.1838 68.7889 90.6646C69.0035 90.1454 69.318 89.6737 69.7145 89.2763C70.111 88.8789 70.5817 88.5637 71.0998 88.3487C71.6178 88.1336 72.173 88.0229 72.7338 88.0229H261.143C261.704 88.0229 262.259 88.1336 262.777 88.3487C263.295 88.5637 263.766 88.8789 264.162 89.2763C264.559 89.6737 264.873 90.1454 265.088 90.6646C265.302 91.1838 265.413 91.7402 265.413 92.3022C265.413 92.8641 265.302 93.4206 265.088 93.9398C264.873 94.459 264.559 94.9307 264.162 95.3281C263.766 95.7255 263.295 96.0407 262.777 96.2557C262.259 96.4708 261.704 96.5814 261.143 96.5814Z" fill="#CCCCCC"/>
<path d="M261.143 142.583H72.7338C72.173 142.583 71.6178 142.473 71.0998 142.258C70.5817 142.043 70.111 141.727 69.7145 141.33C69.318 140.933 69.0035 140.461 68.7889 139.942C68.5743 139.423 68.4639 138.866 68.4639 138.304C68.4639 137.742 68.5743 137.186 68.7889 136.667C69.0035 136.147 69.318 135.676 69.7145 135.278C70.111 134.881 70.5817 134.566 71.0998 134.351C71.6178 134.136 72.173 134.025 72.7338 134.025H261.143C261.704 134.025 262.259 134.136 262.777 134.351C263.295 134.566 263.766 134.881 264.162 135.278C264.559 135.676 264.873 136.147 265.088 136.667C265.302 137.186 265.413 137.742 265.413 138.304C265.413 138.866 265.302 139.423 265.088 139.942C264.873 140.461 264.559 140.933 264.162 141.33C263.766 141.727 263.295 142.043 262.777 142.258C262.259 142.473 261.704 142.583 261.143 142.583Z" fill="#E6E6E6"/>
<path d="M261.143 160.235H72.7338C71.6013 160.235 70.5153 159.784 69.7145 158.982C68.9137 158.179 68.4639 157.091 68.4639 155.956C68.4639 154.821 68.9137 153.733 69.7145 152.93C70.5153 152.128 71.6013 151.677 72.7338 151.677H261.143C262.275 151.677 263.361 152.128 264.162 152.93C264.963 153.733 265.413 154.821 265.413 155.956C265.413 157.091 264.963 158.179 264.162 158.982C263.361 159.784 262.275 160.235 261.143 160.235Z" fill="#E6E6E6"/>
<path d="M230.453 78.3945H103.424C102.291 78.3945 101.205 77.9436 100.404 77.1411C99.6037 76.3386 99.1538 75.2501 99.1538 74.1152C99.1538 72.9803 99.6037 71.8918 100.404 71.0893C101.205 70.2868 102.291 69.8359 103.424 69.8359H230.453C231.585 69.8359 232.672 70.2868 233.472 71.0893C234.273 71.8918 234.723 72.9803 234.723 74.1152C234.723 75.2501 234.273 76.3386 233.472 77.1411C232.672 77.9436 231.585 78.3945 230.453 78.3945Z" fill="#CCCCCC"/>
<path d="M139.157 124.931H72.9733C72.4121 124.932 71.8563 124.822 71.3377 124.607C70.819 124.392 70.3477 124.077 69.9507 123.68C69.5536 123.282 69.2387 122.81 69.0238 122.291C68.8089 121.771 68.6982 121.214 68.6982 120.652C68.6982 120.089 68.8089 119.533 69.0238 119.013C69.2387 118.494 69.5536 118.022 69.9507 117.624C70.3477 117.227 70.819 116.912 71.3377 116.697C71.8563 116.482 72.4121 116.372 72.9733 116.373H139.157C140.289 116.373 141.375 116.823 142.176 117.626C142.977 118.428 143.427 119.517 143.427 120.652C143.427 121.787 142.977 122.875 142.176 123.678C141.375 124.48 140.289 124.931 139.157 124.931Z" fill="#E6E6E6"/>
<path d="M261.382 124.931H195.199C194.638 124.932 194.082 124.822 193.563 124.607C193.045 124.392 192.573 124.077 192.176 123.68C191.779 123.282 191.464 122.81 191.249 122.291C191.034 121.771 190.924 121.214 190.924 120.652C190.924 120.089 191.034 119.533 191.249 119.013C191.464 118.494 191.779 118.022 192.176 117.624C192.573 117.227 193.045 116.912 193.563 116.697C194.082 116.482 194.638 116.372 195.199 116.373H261.382C261.943 116.372 262.499 116.482 263.018 116.697C263.536 116.912 264.008 117.227 264.405 117.624C264.802 118.022 265.117 118.494 265.332 119.013C265.547 119.533 265.657 120.089 265.657 120.652C265.657 121.214 265.547 121.771 265.332 122.291C265.117 122.81 264.802 123.282 264.405 123.68C264.008 124.077 263.536 124.392 263.018 124.607C262.499 124.822 261.943 124.932 261.382 124.931Z" fill="#E6E6E6"/>
<path d="M329.044 0.5H5.0628C3.8285 0.501882 2.64537 0.994533 1.77315 1.8698C0.900936 2.74507 0.410916 3.93142 0.410645 5.16843V225.186C0.4122 226.422 0.902832 227.607 1.77494 228.481C2.64706 229.355 3.82945 229.846 5.0628 229.848H247.333C247.272 229.406 247.223 228.958 247.173 228.517H5.0628C4.1815 228.516 3.33653 228.165 2.71335 227.54C2.09017 226.916 1.7397 226.069 1.73889 225.186V5.16843C1.73947 4.28456 2.08966 3.43698 2.71272 2.81142C3.33577 2.18587 4.18087 1.83338 5.0628 1.83121H329.044C329.927 1.83213 330.774 2.18402 331.398 2.80967C332.022 3.43532 332.373 4.28363 332.374 5.16843V140.013C332.815 140.044 333.262 140.08 333.703 140.123V5.16843C333.702 3.93044 333.211 2.74333 332.338 1.86796C331.464 0.992595 330.28 0.500569 329.044 0.5Z" fill="#3F3D56"/>
<path d="M247.333 229.848C247.271 229.406 247.222 228.958 247.173 228.517C247.161 228.449 247.155 228.388 247.149 228.32C246.971 226.707 246.843 225.077 246.763 223.431C246.427 224.848 246.123 226.272 245.851 227.701C245.87 227.909 245.888 228.112 245.912 228.32C245.919 228.388 245.925 228.449 245.937 228.517C245.986 228.958 246.035 229.406 246.096 229.848C246.267 231.216 246.476 232.566 246.72 233.909C246.726 233.854 246.733 233.805 246.739 233.75C246.91 232.455 247.106 231.167 247.339 229.879C247.334 229.869 247.332 229.859 247.333 229.848ZM333.702 138.89C333.262 138.847 332.815 138.811 332.374 138.78C332.307 138.774 332.245 138.774 332.178 138.768C330.219 138.62 328.236 138.547 326.24 138.547C314.943 138.55 303.771 140.928 293.446 145.525C283.122 150.123 273.873 156.839 266.299 165.24C258.724 173.641 252.99 183.54 249.468 194.298C245.946 205.057 244.714 216.436 245.851 227.701C245.87 227.909 245.888 228.112 245.912 228.32C245.919 228.388 245.925 228.449 245.937 228.517C245.986 228.958 246.035 229.406 246.096 229.848C246.267 231.216 246.476 232.566 246.72 233.909C249.153 247.228 254.864 259.728 263.338 270.275C271.811 280.822 282.778 289.081 295.243 294.304C296.516 294.832 297.801 295.335 299.105 295.795C299.962 296.108 300.819 296.396 301.688 296.672C302.313 296.875 302.943 297.065 303.574 297.249C304.468 297.513 305.373 297.764 306.286 297.997C317.474 300.874 329.149 301.301 340.517 299.249C351.884 297.198 362.677 292.716 372.161 286.108H372.168C382.923 278.666 391.715 268.719 397.789 257.121C403.863 245.524 407.037 232.622 407.04 219.524C407.04 177.391 374.769 142.675 333.702 138.89ZM371.635 284.986C367.895 287.603 363.936 289.892 359.803 291.826C356.833 293.219 353.779 294.424 350.658 295.433C336.576 299.974 321.511 300.499 307.149 296.948C306.071 296.684 305.002 296.396 303.941 296.083C302.894 295.776 301.858 295.451 300.832 295.108C299.993 294.819 299.154 294.525 298.322 294.212C297.453 293.881 296.596 293.537 295.739 293.182C282.849 287.798 271.595 279.118 263.101 268.01C254.608 256.901 249.172 243.752 247.339 229.879C247.334 229.869 247.332 229.859 247.333 229.848C247.271 229.406 247.222 228.958 247.173 228.517C247.161 228.449 247.155 228.388 247.149 228.32C246.971 226.707 246.843 225.077 246.763 223.431C246.696 222.137 246.663 220.834 246.665 219.524C246.688 198.38 255.08 178.108 269.998 163.157C284.916 148.207 305.143 139.797 326.241 139.774C328.236 139.774 330.219 139.847 332.178 139.995C332.245 140.001 332.307 140.007 332.374 140.013C332.815 140.044 333.262 140.081 333.702 140.123C374.096 143.902 405.816 178.066 405.816 219.524C405.814 232.39 402.704 245.064 396.752 256.464C390.8 267.864 382.182 277.65 371.635 284.986ZM298.322 294.212C297.453 293.881 296.596 293.537 295.739 293.182C282.849 287.798 271.595 279.118 263.101 268.01C254.608 256.901 249.172 243.752 247.339 229.879C247.106 231.167 246.91 232.455 246.739 233.75C246.733 233.805 246.726 233.854 246.72 233.909C249.153 247.228 254.864 259.728 263.338 270.275C271.811 280.822 282.778 289.081 295.243 294.304C296.516 294.832 297.801 295.335 299.105 295.795C298.836 295.273 298.573 294.746 298.322 294.212ZM332.178 138.768C330.219 138.62 328.236 138.547 326.24 138.547C314.943 138.55 303.771 140.928 293.446 145.525C283.122 150.123 273.873 156.839 266.299 165.24C258.724 173.641 252.99 183.54 249.468 194.298C245.946 205.057 244.714 216.436 245.851 227.701C245.87 227.909 245.888 228.112 245.912 228.32C245.919 228.388 245.925 228.449 245.937 228.517H247.173C247.161 228.449 247.155 228.388 247.149 228.32C246.971 226.707 246.843 225.077 246.763 223.431C246.696 222.137 246.663 220.834 246.665 219.524C246.688 198.38 255.08 178.108 269.998 163.157C284.916 148.207 305.143 139.797 326.241 139.774C328.236 139.774 330.219 139.847 332.178 139.995C332.245 140.001 332.307 140.007 332.374 140.013L332.374 138.78C332.307 138.774 332.245 138.774 332.178 138.768Z" fill="#3F3D56"/>
<path d="M391.918 159.273C416.735 159.698 416.731 196.695 391.917 197.116C367.1 196.691 367.104 159.695 391.918 159.273Z" fill="#783DA6"/>
<path d="M391.918 188.498C391.566 188.497 391.229 188.357 390.98 188.108C390.731 187.859 390.591 187.521 390.591 187.168V180.118C390.591 179.96 390.528 179.81 390.418 179.699C390.307 179.588 390.157 179.525 390 179.525H382.965C382.613 179.525 382.275 179.385 382.026 179.135C381.777 178.886 381.638 178.548 381.638 178.195C381.638 177.842 381.777 177.504 382.026 177.254C382.275 177.005 382.613 176.865 382.965 176.865H390C390.156 176.865 390.307 176.802 390.418 176.691C390.528 176.58 390.591 176.43 390.591 176.273V169.222C390.591 168.869 390.731 168.531 390.98 168.282C391.228 168.032 391.566 167.892 391.918 167.892C392.27 167.892 392.607 168.032 392.856 168.282C393.105 168.531 393.245 168.869 393.245 169.222V176.273C393.245 176.43 393.307 176.58 393.418 176.691C393.529 176.802 393.679 176.865 393.836 176.865H400.871C401.223 176.865 401.56 177.005 401.809 177.254C402.058 177.504 402.198 177.842 402.198 178.195C402.198 178.548 402.058 178.886 401.809 179.135C401.56 179.385 401.223 179.525 400.871 179.525H393.836C393.679 179.525 393.529 179.588 393.418 179.699C393.307 179.81 393.245 179.96 393.245 180.118V187.168C393.244 187.521 393.104 187.858 392.856 188.108C392.607 188.357 392.27 188.497 391.918 188.498Z" fill="white"/>
</g>
<defs>
<clipPath id="clip0_433_94">
<rect width="423.179" height="300" fill="white" transform="translate(0.410645 0.5)"/>
</clipPath>
</defs>
</svg>
