<svg width="73" height="60" viewBox="0 0 73 60" fill="none" xmlns="http://www.w3.org/2000/svg">
<rect x="0.114258" width="71.9159" height="60" rx="10" fill="#F21D92"/>
<g clip-path="url(#clip0_524_6)">
<path d="M13.2988 42.6497C13.2988 45.1971 15.6582 46.967 18.9494 46.967C21.8837 46.967 26.2455 45.1639 26.2455 40.3339V23.5444C26.2455 22.9489 25.6507 22.4361 24.9171 22.4361C24.1836 22.4361 23.5689 22.9489 23.5689 23.5444V35.7023C23.5689 36.5128 23.1922 37.0587 22.3199 37.191L19.1675 37.7369C15.1625 38.4482 13.2988 40.1188 13.2988 42.6497ZM31.3013 34.2136C31.3013 36.7443 33.6606 38.5308 36.9518 38.5308C39.8861 38.5308 44.2479 36.7279 44.2479 31.8812V15.1083C44.2479 14.4962 43.6532 14 42.9195 14C42.186 14 41.5714 14.4962 41.5714 15.1083V27.2662C41.5714 28.0767 41.1946 28.606 40.3222 28.7549L37.1699 29.3008C33.165 29.9955 31.3013 31.6828 31.3013 34.2136ZM45.9927 42.6497C45.9927 45.1971 48.3323 46.967 51.6432 46.967C54.5578 46.967 58.9394 45.1639 58.9394 40.3339V23.5444C58.9394 22.9489 58.3247 22.4361 57.6111 22.4361C56.8773 22.4361 56.2628 22.9489 56.2628 23.5444V35.7023C56.2628 36.5294 55.8663 37.0587 55.0138 37.191L51.8415 37.7533C47.8564 38.4482 45.9927 40.1354 45.9927 42.6497Z" fill="white"/>
</g>
<defs>
<clipPath id="clip0_524_6">
<rect width="45.6406" height="33" fill="white" transform="translate(13.2988 14)"/>
</clipPath>
</defs>
</svg>
