<svg width="23" height="25" viewBox="0 0 23 25" fill="none" xmlns="http://www.w3.org/2000/svg">
<path d="M10.2011 25H12.1707C12.7273 25 13.134 24.6291 13.2518 24.0191L13.8085 21.3875C14.2259 21.232 14.6326 21.0526 14.9859 20.8611L17.0517 22.2727C17.5121 22.5957 18.0366 22.5478 18.4219 22.1171L19.8028 20.586C20.1882 20.1555 20.2416 19.5335 19.9312 19.019L18.6681 16.7344C18.8501 16.3157 19.0107 15.8852 19.1284 15.4545L21.5047 14.8205C22.0507 14.689 22.3718 14.2344 22.3718 13.6124V11.4473C22.3718 10.8373 22.0507 10.3827 21.5047 10.2512L19.1498 9.6172C19.0107 9.12677 18.8394 8.68419 18.6896 8.31338L19.9526 5.99281C20.2524 5.47846 20.2203 4.89233 19.8241 4.46172L18.4219 2.91865C18.0259 2.51195 17.5549 2.44019 17.0839 2.73923L14.9859 4.1866C14.6434 3.98324 14.2472 3.80382 13.8085 3.64832L13.2518 0.980859C13.134 0.370812 12.7273 0 12.1707 0H10.2011C9.64449 0 9.23772 0.370812 9.10928 0.980859L8.55265 3.62439C8.1352 3.7799 7.72843 3.95932 7.36449 4.17463L5.28788 2.73923C4.81689 2.44019 4.3352 2.5 3.93915 2.91865L2.5476 4.46172C2.15154 4.89233 2.10873 5.47846 2.41915 5.99281L3.67154 8.31338C3.53239 8.68419 3.36112 9.12677 3.22196 9.6172L0.867041 10.2512C0.321126 10.3827 0 10.8373 0 11.4473V13.6124C0 14.2344 0.321126 14.689 0.867041 14.8205L3.24337 15.4545C3.36112 15.8852 3.52168 16.3157 3.69295 16.7344L2.44056 19.019C2.11943 19.5335 2.18366 20.1555 2.56901 20.586L3.93915 22.1171C4.32449 22.5478 4.8597 22.5957 5.31999 22.2727L7.3752 20.8611C7.73914 21.0526 8.1352 21.232 8.55265 21.3875L9.10928 24.0191C9.23772 24.6291 9.64449 25 10.2011 25ZM11.1859 16.7224C9.10928 16.7224 7.4073 14.8085 7.4073 12.488C7.4073 10.1794 9.10928 8.27749 11.1859 8.27749C13.2625 8.27749 14.9644 10.1794 14.9644 12.488C14.9644 14.8085 13.2625 16.7224 11.1859 16.7224Z" fill="#8B73A4"/>
</svg>
