<svg width="403" height="352" viewBox="0 0 403 352" fill="none" xmlns="http://www.w3.org/2000/svg">
<g clip-path="url(#clip0_422_4986)">
<path d="M403 347.636L114.514 352L0 331.636H178.771L403 347.636Z" fill="#E6E6E6"/>
<path d="M332.207 92.6061C357.694 92.6061 378.355 71.8755 378.355 46.303C378.355 20.7306 357.694 0 332.207 0C306.72 0 286.059 20.7306 286.059 46.303C286.059 71.8755 306.72 92.6061 332.207 92.6061Z" fill="#FF6584"/>
<path d="M81.6377 334.057C81.6377 334.057 82.3127 319.865 96.1509 321.514Z" fill="#3F3D56"/>
<path d="M77.7277 320.551C81.5527 320.551 84.6535 317.44 84.6535 313.602C84.6535 309.764 81.5527 306.653 77.7277 306.653C73.9026 306.653 70.8018 309.764 70.8018 313.602C70.8018 317.44 73.9026 320.551 77.7277 320.551Z" fill="#6B6FDB"/>
<path d="M78.5556 325.304H76.6006V339.035H78.5556V325.304Z" fill="#3F3D56"/>
<path d="M309.721 336.481C309.721 336.481 310.396 322.289 324.234 323.939Z" fill="#3F3D56"/>
<path d="M305.811 322.975C309.636 322.975 312.737 319.864 312.737 316.026C312.737 312.188 309.636 309.077 305.811 309.077C301.986 309.077 298.885 312.188 298.885 316.026C298.885 319.864 301.986 322.975 305.811 322.975Z" fill="#6B6FDB"/>
<path d="M306.639 327.728H304.684V341.459H306.639V327.728Z" fill="#3F3D56"/>
<path d="M343.063 338.905C343.063 338.905 343.738 324.713 357.577 326.363Z" fill="#3F3D56"/>
<path d="M339.153 325.4C342.978 325.4 346.079 322.289 346.079 318.451C346.079 314.613 342.978 311.501 339.153 311.501C335.328 311.501 332.228 314.613 332.228 318.451C332.228 322.289 335.328 325.4 339.153 325.4Z" fill="#6B6FDB"/>
<path d="M339.981 330.152H338.026V343.883H339.981V330.152Z" fill="#3F3D56"/>
<path d="M136.242 327.268C136.242 327.268 136.917 313.077 150.755 314.726Z" fill="#3F3D56"/>
<path d="M132.332 313.764C136.157 313.764 139.258 310.652 139.258 306.814C139.258 302.976 136.157 299.865 132.332 299.865C128.507 299.865 125.406 302.976 125.406 306.814C125.406 310.652 128.507 313.764 132.332 313.764Z" fill="#6B6FDB"/>
<path d="M133.161 318.516H131.206V332.247H133.161V318.516Z" fill="#3F3D56"/>
<path d="M33.3149 329.693C33.3149 329.693 33.99 315.501 47.8281 317.151Z" fill="#3F3D56"/>
<path d="M29.4049 316.187C33.23 316.187 36.3308 313.076 36.3308 309.238C36.3308 305.4 33.23 302.289 29.4049 302.289C25.5798 302.289 22.479 305.4 22.479 309.238C22.479 313.076 25.5798 316.187 29.4049 316.187Z" fill="#6B6FDB"/>
<path d="M30.2328 320.94H28.2778V334.671H30.2328V320.94Z" fill="#3F3D56"/>
<path d="M200.77 305.032C242.444 305.032 276.228 271.135 276.228 229.32C276.228 187.506 242.444 153.608 200.77 153.608C159.095 153.608 125.311 187.506 125.311 229.32C125.311 271.135 159.095 305.032 200.77 305.032Z" fill="#3F3D56"/>
<path d="M153.264 235.398C155.138 233.147 157.482 231.336 160.13 230.093C162.778 228.851 165.665 228.207 168.589 228.207C171.512 228.207 174.4 228.851 177.048 230.093C179.696 231.336 182.04 233.147 183.914 235.398C187.12 232.326 189.337 228.361 190.277 224.014C191.218 219.667 190.839 215.137 189.19 211.008C187.541 206.879 184.698 203.34 181.026 200.847C177.354 198.355 173.022 197.022 168.589 197.022C164.155 197.022 159.824 198.355 156.152 200.847C152.48 203.34 149.636 206.879 147.987 211.008C146.338 215.137 145.96 219.667 146.9 224.014C147.841 228.361 150.057 232.326 153.264 235.398V235.398Z" fill="white"/>
<path d="M213.187 235.398C215.061 233.147 217.405 231.336 220.053 230.093C222.701 228.851 225.588 228.207 228.512 228.207C231.435 228.207 234.323 228.851 236.971 230.093C239.619 231.336 241.962 233.147 243.837 235.398C247.043 232.326 249.26 228.361 250.2 224.014C251.141 219.667 250.762 215.137 249.113 211.008C247.464 206.879 244.62 203.34 240.949 200.847C237.277 198.355 232.945 197.022 228.512 197.022C224.078 197.022 219.746 198.355 216.075 200.847C212.403 203.34 209.559 206.879 207.91 211.008C206.261 215.137 205.883 219.667 206.823 224.014C207.763 228.361 209.98 232.326 213.187 235.398Z" fill="white"/>
<path d="M161.018 219.368C165.234 219.368 168.652 215.938 168.652 211.708C168.652 207.477 165.234 204.048 161.018 204.048C156.801 204.048 153.383 207.477 153.383 211.708C153.383 215.938 156.801 219.368 161.018 219.368Z" fill="#3F3D56"/>
<path d="M220.939 219.368C225.155 219.368 228.573 215.938 228.573 211.708C228.573 207.477 225.155 204.048 220.939 204.048C216.722 204.048 213.304 207.477 213.304 211.708C213.304 215.938 216.722 219.368 220.939 219.368Z" fill="#3F3D56"/>
<path d="M146.395 257.155C151.298 257.155 155.273 253.167 155.273 248.248C155.273 243.329 151.298 239.341 146.395 239.341C141.492 239.341 137.518 243.329 137.518 248.248C137.518 253.167 141.492 257.155 146.395 257.155Z" fill="#FF6584"/>
<path d="M248.486 257.155C253.389 257.155 257.363 253.167 257.363 248.248C257.363 243.329 253.389 239.341 248.486 239.341C243.583 239.341 239.608 243.329 239.608 248.248C239.608 253.167 243.583 257.155 248.486 257.155Z" fill="#FF6584"/>
<path d="M197.44 230.433L190.782 259.382L201.879 248.248L197.44 230.433Z" fill="#FF6584"/>
<path d="M231.651 341.774L224.092 335.409L224.268 341.774H221.92L221.733 335.044L211.527 341.774H207.254L221.657 332.276L221.099 312.332L220.682 297.269L223.024 297.204L223.447 312.332L224.004 332.258L235.301 341.774H231.651Z" fill="#3F3D56"/>
<path d="M196.139 341.774L188.58 335.409L188.756 341.774H186.415L186.227 335.044L176.021 341.774H171.748L186.144 332.276L185.587 312.332L185.17 297.269L187.518 297.204L187.94 312.332L188.492 332.258L199.79 341.774H196.139Z" fill="#3F3D56"/>
<path d="M201.879 148.042C199.809 148.042 197.982 149.655 196.761 152.134C195.685 148.407 193.423 145.815 190.783 145.815C190.603 145.833 190.425 145.863 190.25 145.905C189.234 141.925 186.875 139.134 184.124 139.134C180.447 139.134 177.466 144.119 177.466 150.268C177.466 156.418 180.447 161.402 184.124 161.402C184.304 161.385 184.482 161.355 184.657 161.313C185.673 165.292 188.032 168.083 190.783 168.083C192.853 168.083 194.68 166.469 195.901 163.991C196.977 167.718 199.238 170.31 201.879 170.31C205.557 170.31 208.537 165.325 208.537 159.176C208.537 153.026 205.557 148.042 201.879 148.042Z" fill="#3F3D56"/>
<path d="M129.942 258.012C127.027 258.012 124.141 257.436 121.449 256.317C118.756 255.198 116.309 253.557 114.249 251.49C112.188 249.422 110.553 246.967 109.438 244.265C108.322 241.564 107.748 238.668 107.748 235.744V224.609C107.748 218.704 110.086 213.04 114.249 208.864C118.411 204.687 124.056 202.341 129.942 202.341V202.341V258.012Z" fill="#6B6FDB"/>
<path d="M271.597 202.341C274.512 202.341 277.398 202.917 280.09 204.036C282.783 205.155 285.23 206.796 287.29 208.863C289.351 210.931 290.986 213.386 292.101 216.088C293.217 218.789 293.791 221.685 293.791 224.609V235.744C293.791 238.668 293.217 241.563 292.101 244.265C290.986 246.967 289.351 249.422 287.29 251.489C285.23 253.557 282.783 255.198 280.09 256.317C277.398 257.436 274.512 258.012 271.597 258.012V258.012V202.341H271.597Z" fill="#6B6FDB"/>
<path d="M283.227 226.359H279.706C279.706 181.551 243.374 145.097 198.715 145.097C154.058 145.097 117.725 181.551 117.725 226.359H114.204C114.204 179.603 152.116 141.564 198.715 141.564C245.316 141.564 283.227 179.603 283.227 226.359Z" fill="#6B6FDB"/>
<path d="M77.8733 158.263L77.8739 158.262L76.2196 157.571L69.2395 154.61L66.7375 153.549L66.5455 154.035L63.1846 162.55L72.6433 166.567L72.693 166.612L72.0556 168.12C71.9683 168.258 71.8939 168.403 71.8332 168.555C71.3867 169.686 72.23 170.811 73.0272 171.128C73.8244 171.445 74.8327 170.785 75.2792 169.654C75.7196 168.538 75.2892 167.12 74.5123 166.778L74.513 166.776L72.8587 166.085L67.1994 163.878L70.433 155.686L69.9537 155.496L66.719 163.691L66.0192 163.418L69.2666 155.191L69.3521 155.227L76.0043 158.052L76.0539 158.097L75.4166 159.605C75.3293 159.743 75.2548 159.889 75.1942 160.04C74.7476 161.172 75.5909 162.297 76.3881 162.613C77.1854 162.93 78.1936 162.27 78.6401 161.139C79.0805 160.023 78.6501 158.606 77.8733 158.263Z" fill="#3F3D56"/>
<path d="M110.611 179.167C107.178 177.197 107.865 172.874 107.865 172.874C107.778 170.066 105.466 170.464 105.466 170.464L104.625 170.656C104.234 170.474 103.803 170.394 103.373 170.424L102.093 170.64C105.008 171.327 104.769 173.774 104.769 173.774L105.177 176.635L97.539 173.543L98.416 171.469C98.5372 171.277 98.6406 171.075 98.7249 170.864C99.345 169.293 98.1738 167.73 97.0665 167.29C95.9593 166.85 94.5589 167.767 93.9387 169.338C93.3271 170.888 93.9249 172.857 95.0039 173.332L95.003 173.334L97.3006 174.294L97.3177 174.24L110.611 179.167ZM106.733 174.14L106.978 176.878C106.113 175.661 105.707 174.175 105.831 172.685C105.811 172.155 105.633 171.643 105.32 171.216C105.801 171.525 106.188 171.962 106.437 172.478C106.686 172.994 106.789 173.569 106.733 174.14V174.14Z" fill="#3F3D56"/>
<path d="M52.3484 138.67L52.3493 138.668L50.0516 137.708L40.4486 133.963L42.8723 131.799C43.3465 131.165 44.0467 130.739 44.8265 130.611C45.6062 130.483 46.4052 130.662 47.0563 131.111L46.3041 129.99C46.3041 129.99 44.8902 128.112 42.9109 130.099C42.9109 130.099 40.462 133.721 36.6152 132.798L49.7526 138.377L49.8215 138.44L48.9362 140.534C48.815 140.726 48.7116 140.928 48.6273 141.138C48.0072 142.71 49.1785 144.272 50.2857 144.712C51.393 145.152 52.7933 144.235 53.4135 142.664C54.0252 141.115 53.4273 139.146 52.3484 138.67Z" fill="#3F3D56"/>
<path d="M87.5051 126.411L86.6198 128.506C86.4986 128.697 86.3952 128.9 86.3109 129.11C85.6907 130.681 86.862 132.244 87.9693 132.684C89.0765 133.124 90.4769 132.207 91.097 130.636C91.7088 129.086 91.1109 127.118 90.032 126.642L90.0329 126.64L87.7352 125.68L79.8751 122.614L84.3661 111.237L83.7005 110.972L79.2078 122.354L78.2359 121.975L82.7461 110.549L82.8649 110.599L92.1041 114.523L92.1731 114.585L91.2878 116.68C91.1666 116.871 91.0632 117.074 90.9789 117.284C90.3588 118.855 91.53 120.418 92.6373 120.858C93.7445 121.298 95.1449 120.381 95.7651 118.81C96.3768 117.26 95.779 115.292 94.7 114.816L94.7009 114.814L92.4032 113.854L83.0135 109.871L83.0131 109.871L82.7085 109.742L79.2335 108.268L74.2988 120.77L87.4361 126.349L87.5051 126.411Z" fill="#3F3D56"/>
<path d="M45.8727 62.3863L45.8743 62.3831L41.919 60.7304L25.388 54.2826L29.5603 50.5581C29.5603 50.5581 32.3355 46.6945 36.7626 49.3743L35.468 47.4436C35.468 47.4436 33.0338 44.2102 29.6267 47.6312C29.6267 47.6312 25.411 53.8669 18.7891 52.2774L41.4041 61.8813L41.5228 61.9893L39.9989 65.5946C39.7903 65.9244 39.6123 66.2727 39.4672 66.6352C38.3996 69.3397 40.4159 72.0299 42.3219 72.7873C44.228 73.5448 46.6387 71.9663 47.7063 69.2618C48.7592 66.5941 47.7301 63.2052 45.8727 62.3863Z" fill="#3F3D56"/>
<path d="M58.0112 116.548C49.8016 111.838 51.4445 101.503 51.4445 101.503C51.2379 94.7895 45.7094 95.7399 45.7094 95.7399L43.6974 96.2006C42.7627 95.7653 41.7335 95.5743 40.7055 95.6453L37.6447 96.1622C44.6141 97.8052 44.0415 103.655 44.0415 103.655L45.018 110.495L26.7562 103.103L28.8529 98.1426C29.1427 97.6846 29.3899 97.2008 29.5915 96.6974C31.0742 92.941 28.2738 89.2047 25.6265 88.1527C22.9791 87.1007 19.631 89.2929 18.1483 93.0493C16.6857 96.7543 18.115 101.461 20.6948 102.599L20.6926 102.603L26.1862 104.899L26.2271 104.769L58.0112 116.548ZM48.7376 104.53L49.3252 111.099C45.8772 106.507 46.5819 101.051 46.5819 101.051C46.5333 99.7835 46.1073 98.5601 45.3589 97.5383C49.3197 99.9165 48.7375 104.53 48.7375 104.53H48.7376Z" fill="#3F3D56"/>
</g>
<defs>
<clipPath id="clip0_422_4986">
<rect width="403" height="352" fill="white"/>
</clipPath>
</defs>
</svg>
