<svg width="27" height="44" viewBox="0 0 27 44" fill="none" xmlns="http://www.w3.org/2000/svg">
<path d="M26.6432 10.479V2.47987C26.6432 1.35235 25.7105 0.62903 24.6045 0.841771L13.4567 3.22448C12.0687 3.52232 11.3096 4.26692 11.3096 5.45826L11.353 29.1152C11.4614 30.1576 10.9626 30.8384 10.0083 31.0298L6.55991 31.7318C2.22228 32.6254 0.183594 34.7953 0.183594 38.0077C0.183594 41.2626 2.74279 43.5391 6.34304 43.5391C9.53118 43.5391 14.3026 41.2414 14.3026 35.0507V15.5848C14.3026 14.4572 14.5195 14.2232 15.5388 14.0105L25.4504 11.8831C26.1877 11.7341 26.6432 11.181 26.6432 10.479Z" fill="white"/>
</svg>
