<svg width="72" height="60" viewBox="0 0 72 60" fill="none" xmlns="http://www.w3.org/2000/svg">
<rect width="72" height="60" rx="10" fill="#F291B5"/>
<g clip-path="url(#clip0_524_7)">
<path d="M35.9875 45.7903C36.938 45.7903 37.6834 45.1645 37.6834 44.3826V32.776L43.2559 28.4587C45.3805 28.6933 47.617 27.9582 49.574 26.3157L39.3236 17.6969C37.3479 19.3393 36.5279 21.1851 36.8262 22.9839L19.4936 38.6418C18.7854 39.2832 18.6736 40.1747 19.5496 40.9099L17.164 43.4909C16.9404 43.7412 16.9217 44.101 17.2572 44.3826L17.7977 44.8517C18.1145 45.1176 18.5432 45.1333 18.8786 44.9143L21.9537 42.8964C22.7924 43.6317 23.8734 43.5378 24.6188 42.9434L34.2915 35.4351V44.3826C34.2915 45.1645 35.037 45.7903 35.9875 45.7903ZM21.4133 39.9244L37.8512 25.2833C38.168 25.737 38.5407 26.1593 39.0068 26.5816C39.4539 26.9727 39.9759 27.3325 40.4604 27.5827L23.1279 41.3636L21.4133 39.9244ZM41.1871 16.117L51.4562 24.7359C54.7363 22.0141 54.8668 18.5259 51.7171 15.898C48.5861 13.3014 44.4674 13.364 41.1871 16.117Z" fill="white"/>
</g>
<defs>
<clipPath id="clip0_524_7">
<rect width="37" height="33" fill="white" transform="translate(17 14)"/>
</clipPath>
</defs>
</svg>
