<svg width="32" height="45" viewBox="0 0 32 45" fill="none" xmlns="http://www.w3.org/2000/svg">
<path d="M5.17926 44.3287H26.2415C29.6254 44.3287 31.4208 42.5211 31.4208 38.9513V23.3843C31.4208 19.8146 29.6254 18.0297 26.2415 18.0297H5.17926C1.79547 18.0297 0 19.8146 0 23.3843V38.9513C0 42.5211 1.79547 44.3287 5.17926 44.3287ZM4.02829 19.7694H7.6883V12.1328C7.6883 6.43917 11.3943 3.41163 15.6989 3.41163C20.0034 3.41163 23.7554 6.43917 23.7554 12.1328V19.7694H27.3925V12.6298C27.3925 4.13463 21.7298 0 15.6989 0C9.69095 0 4.02829 4.13463 4.02829 12.6298V19.7694Z" fill="white"/>
</svg>
